{"glyphs":{"0":{"ha":811,"x_min":128,"x_max":876,"o":"m 815 338 q 674 83 781 178 q 403 -17 563 -17 q 204 50 276 -17 q 128 242 128 118 q 139 338 128 286 l 189 576 q 332 832 222 735 q 606 932 447 932 q 804 865 732 932 q 876 676 876 799 q 865 576 876 629 l 815 338 m 786 338 l 836 576 q 847 667 847 625 q 780 842 847 779 q 599 906 713 906 q 349 811 453 906 q 218 576 250 722 l 168 338 q 157 249 157 290 q 224 73 157 136 q 407 10 292 10 q 656 103 553 10 q 786 338 754 192 z "},"1":{"ha":574,"x_min":288,"x_max":621,"o":"m 431 0 l 401 0 l 583 857 l 332 679 l 288 679 l 592 897 l 621 897 l 431 0 z "},"2":{"ha":811,"x_min":81,"x_max":858,"o":"m 749 0 l 81 0 q 442 408 133 240 q 661 525 497 438 q 825 694 806 603 q 831 738 831 718 q 756 857 831 818 q 610 886 699 886 q 254 603 315 886 l 225 603 q 356 832 257 751 q 607 913 454 913 q 858 743 858 913 q 853 690 858 718 q 583 453 829 579 q 393 351 454 386 q 253 238 318 301 q 119 26 139 125 l 754 26 l 749 0 z "},"3":{"ha":811,"x_min":110,"x_max":886,"o":"m 803 244 q 656 46 776 117 q 410 -15 549 -15 q 204 33 282 -15 q 110 211 110 93 q 118 289 110 247 l 121 303 l 150 303 l 143 269 q 138 211 138 239 q 225 56 138 108 q 410 11 299 11 q 636 65 538 11 q 775 244 751 129 q 782 304 782 276 q 533 469 782 469 l 469 469 l 475 496 l 540 496 q 851 694 810 496 q 856 733 856 715 q 771 856 856 817 q 614 886 707 886 q 246 619 303 886 l 217 619 q 357 843 247 767 q 615 913 458 913 q 792 881 722 913 q 886 743 886 838 q 881 694 886 719 q 618 483 842 511 q 810 306 810 465 q 803 244 810 278 z "},"4":{"ha":811,"x_min":113,"x_max":833,"o":"m 828 313 l 649 313 l 582 0 l 553 0 l 619 313 l 113 313 l 526 899 l 556 899 l 160 339 l 625 339 l 744 899 l 772 897 l 654 339 l 833 339 l 828 313 z "},"5":{"ha":811,"x_min":106,"x_max":890,"o":"m 804 297 q 662 67 774 150 q 397 -15 550 -15 q 106 206 106 -15 q 115 288 106 243 l 144 288 q 136 215 136 249 q 219 54 136 107 q 404 11 288 11 q 643 85 544 11 q 775 296 747 161 q 783 365 783 333 q 700 532 783 474 q 514 582 628 582 q 215 444 331 582 l 179 444 l 294 897 l 890 897 l 885 871 l 319 871 l 219 476 q 525 608 339 608 q 725 553 647 608 q 814 372 814 490 q 804 297 814 338 z "},"6":{"ha":811,"x_min":138,"x_max":865,"o":"m 857 619 l 829 619 q 836 682 836 653 q 764 835 836 781 q 596 885 699 885 q 372 815 467 885 q 251 619 278 744 l 206 411 q 524 564 315 564 q 707 513 636 564 q 786 347 786 454 q 778 276 786 314 q 642 65 750 142 q 400 -8 540 -8 q 217 42 288 -8 q 138 206 138 99 q 144 276 138 239 l 147 290 q 151 303 151 300 l 219 624 q 358 835 249 758 q 603 907 461 907 q 785 856 715 907 q 865 690 865 797 q 857 619 865 657 m 750 276 q 758 342 758 311 q 686 494 758 442 q 518 542 622 542 q 296 472 389 542 q 172 276 199 400 q 165 211 165 242 q 238 60 165 113 q 406 13 303 13 q 628 83 533 13 q 750 276 724 153 z "},"7":{"ha":811,"x_min":265,"x_max":922,"o":"m 922 897 l 294 0 l 265 0 l 875 871 l 276 871 l 282 897 l 922 897 z "},"8":{"ha":835,"x_min":106,"x_max":881,"o":"m 829 250 q 675 42 800 111 q 415 -15 569 -15 q 210 25 289 -15 q 106 190 106 78 q 113 253 106 219 q 225 425 135 361 q 422 493 306 483 q 304 539 351 504 q 249 647 249 582 q 253 683 249 665 q 613 913 301 913 q 881 736 881 913 q 875 683 881 711 q 779 551 858 604 q 624 493 713 507 q 836 307 836 469 q 829 250 836 281 m 846 685 q 851 735 851 711 q 607 886 851 886 q 281 682 325 886 q 278 651 278 667 q 369 535 278 575 q 526 504 439 504 q 715 543 629 504 q 846 685 826 593 m 800 251 q 807 306 807 281 q 521 478 807 478 q 140 251 189 478 q 135 197 135 222 q 232 47 135 94 q 421 11 306 11 q 658 63 563 11 q 800 251 774 125 z "},"9":{"ha":811,"x_min":135,"x_max":868,"o":"m 860 633 l 857 619 q 853 608 854 613 l 779 261 q 640 51 751 128 q 397 -21 538 -21 q 214 29 285 -21 q 135 193 135 86 q 142 264 135 226 l 169 264 q 163 199 163 229 q 235 47 163 100 q 403 0 300 0 q 626 71 531 0 q 747 264 721 142 l 800 500 q 481 349 689 349 q 299 399 368 349 q 218 563 218 456 q 226 633 218 596 q 363 844 254 767 q 606 919 465 919 q 788 868 717 919 q 868 703 868 810 q 860 633 868 671 m 832 633 q 839 699 839 668 q 767 851 839 799 q 600 899 703 899 q 378 829 471 899 q 254 633 281 757 q 247 568 247 599 q 319 417 247 469 q 488 369 385 369 q 710 440 615 369 q 832 633 806 510 z "}," ":{"ha":492,"x_min":0,"x_max":0,"o":""},"!":{"ha":269,"x_min":119,"x_max":350,"o":"m 201 240 l 172 240 l 321 942 l 350 942 l 201 240 m 151 15 q 135 0 149 0 q 122 15 119 0 l 142 106 q 160 119 144 119 q 171 106 174 119 l 151 15 z "},"\"":{"ha":406,"x_min":268,"x_max":494,"o":"m 461 776 q 443 760 457 760 q 432 776 428 760 l 432 776 l 461 918 q 481 933 465 933 q 490 918 494 933 l 490 918 l 461 776 m 301 776 q 282 760 297 760 q 272 776 268 760 l 272 776 l 301 918 q 319 933 306 933 q 331 918 335 933 l 331 918 l 301 776 z "},"#":{"ha":738,"x_min":181,"x_max":743,"o":"m 743 539 l 732 513 l 607 513 l 540 361 l 664 361 l 653 335 l 529 335 l 479 224 l 450 224 l 500 335 l 333 335 l 283 224 l 254 224 l 304 335 l 181 335 l 192 361 l 315 361 l 383 513 l 258 513 l 271 539 l 394 539 l 444 650 l 474 650 l 424 539 l 590 539 l 639 650 l 668 650 l 619 539 l 743 539 m 578 513 l 413 513 l 344 361 l 511 361 l 578 513 z "},"$":{"ha":892,"x_min":103,"x_max":956,"o":"m 872 229 q 751 60 851 128 q 553 -14 667 3 l 535 -97 l 506 -97 l 522 -18 q 454 -22 489 -22 q 349 -14 397 -22 l 331 -97 l 301 -97 l 319 -11 q 104 219 103 38 q 113 297 104 256 l 117 311 l 146 311 l 143 303 q 135 222 135 260 q 326 17 136 57 l 428 496 q 228 674 228 546 q 233 721 228 696 q 525 957 275 915 l 544 1046 l 574 1046 l 556 961 q 638 964 594 964 q 731 958 689 964 l 749 1046 l 778 1046 l 758 954 q 956 747 956 914 q 949 678 956 715 l 919 678 q 924 732 924 706 q 753 928 924 890 l 657 476 q 807 421 764 449 q 879 290 879 375 q 872 229 879 263 m 629 483 l 725 932 q 631 938 682 938 q 550 933 588 938 l 461 518 l 629 483 m 433 525 l 519 929 q 263 721 299 888 q 258 681 258 700 q 433 525 258 572 m 844 233 q 835 353 861 315 q 650 447 796 407 l 558 13 q 738 79 663 28 q 844 233 824 140 m 528 8 l 624 454 l 456 489 l 354 13 q 461 4 403 4 q 528 8 496 4 z "},"%":{"ha":1042,"x_min":185,"x_max":1081,"o":"m 1081 942 l 219 0 l 185 0 l 1047 942 l 1081 942 m 1010 214 q 772 -26 958 -26 q 626 122 626 -26 q 638 214 626 163 q 878 461 690 461 q 1021 313 1021 461 q 1010 214 1021 269 m 593 667 q 354 428 542 428 q 210 574 210 428 q 221 667 210 615 q 460 913 274 913 q 604 763 604 913 q 593 667 604 721 m 979 214 q 990 306 990 265 q 871 435 989 435 q 668 214 715 435 q 657 131 658 167 q 779 0 657 0 q 979 214 933 0 m 563 667 q 574 756 574 717 q 453 886 574 886 q 251 667 299 886 q 242 583 242 619 q 361 453 240 453 q 563 667 517 453 z "},"&":{"ha":838,"x_min":103,"x_max":803,"o":"m 719 -26 l 690 -26 l 742 218 q 699 149 719 179 q 367 -22 550 -22 q 193 21 268 -22 q 103 164 103 72 q 253 406 103 294 q 488 535 326 460 q 347 722 347 606 q 353 768 347 744 q 444 897 369 850 q 601 942 514 942 q 725 913 676 942 q 782 807 782 876 q 778 765 782 788 q 467 499 751 639 q 261 382 317 425 q 133 169 133 282 q 211 43 133 89 q 364 4 278 4 q 682 172 557 4 q 774 365 753 265 l 803 365 l 719 -26 m 753 800 q 703 889 753 858 q 599 915 661 915 q 463 878 522 915 q 381 767 396 838 q 376 724 376 744 q 515 547 376 613 q 753 800 753 668 z "},"'":{"ha":243,"x_min":268,"x_max":335,"o":"m 301 776 q 282 760 297 760 q 272 776 268 760 l 272 776 l 301 918 q 319 933 306 933 q 331 918 335 933 l 331 918 l 301 776 z "},"(":{"ha":324,"x_min":151,"x_max":515,"o":"m 249 -233 l 219 -233 q 151 124 151 -71 q 182 393 151 251 q 486 1019 258 750 l 515 1019 q 211 393 289 756 q 181 118 181 247 q 249 -233 181 -75 z "},")":{"ha":324,"x_min":-32,"x_max":338,"o":"m 307 393 q -3 -233 231 33 l -32 -233 q 278 393 201 31 q 308 661 308 535 q 235 1019 308 858 l 264 1019 q 338 657 338 857 q 307 393 338 533 z "},"*":{"ha":472,"x_min":214,"x_max":561,"o":"m 522 694 q 500 690 513 682 l 397 751 l 371 631 q 354 615 368 615 q 342 631 339 615 l 342 631 l 368 751 l 240 690 q 218 694 224 682 q 231 714 214 706 l 360 775 l 256 835 q 253 854 243 842 q 265 860 258 860 q 274 857 269 860 l 275 857 l 378 797 l 403 918 q 422 933 407 933 q 432 918 436 933 l 432 918 l 407 797 l 536 857 q 546 860 542 860 q 557 854 554 860 q 546 833 561 840 l 418 775 l 519 714 q 522 694 532 707 z "},"+":{"ha":778,"x_min":179,"x_max":746,"o":"m 740 336 l 474 336 l 422 93 l 393 93 l 444 336 l 179 336 l 185 363 l 450 363 l 501 601 l 531 601 l 479 363 l 746 363 l 740 336 z "},",":{"ha":364,"x_min":111,"x_max":250,"o":"m 249 101 l 249 101 l 144 -114 q 122 -125 136 -129 q 114 -114 111 -122 q 117 -107 114 -111 l 117 -107 l 222 108 q 240 119 229 124 q 250 110 250 118 q 249 101 250 107 z "},"-":{"ha":486,"x_min":146,"x_max":508,"o":"m 503 353 l 146 353 l 151 381 l 508 381 l 503 353 z "},".":{"ha":290,"x_min":131,"x_max":185,"o":"m 163 13 q 146 -3 160 -3 q 133 13 131 -3 l 153 103 q 171 118 156 118 q 182 103 185 118 l 163 13 z "},"/":{"ha":486,"x_min":3,"x_max":701,"o":"m 701 964 l 32 0 l 3 0 l 672 964 l 701 964 z "},":":{"ha":339,"x_min":156,"x_max":321,"o":"m 300 540 q 282 525 296 525 q 271 540 267 525 l 271 540 l 289 631 q 308 646 293 646 q 318 631 321 646 l 318 631 l 300 540 m 188 13 q 171 -3 185 -3 q 158 13 156 -3 l 158 13 l 178 103 q 196 118 181 118 q 207 103 208 118 l 207 103 l 188 13 z "},";":{"ha":349,"x_min":103,"x_max":350,"o":"m 328 540 q 310 525 324 525 q 299 540 294 525 l 299 540 l 317 631 q 336 646 321 646 q 346 631 350 646 l 346 631 l 328 540 m 240 101 l 240 101 l 136 -114 q 114 -125 128 -129 q 106 -114 103 -122 q 108 -107 106 -111 l 108 -107 l 214 108 q 232 119 221 124 q 242 110 242 118 q 240 101 242 107 z "},"<":{"ha":743,"x_min":135,"x_max":792,"o":"m 678 68 l 135 318 l 142 350 l 792 599 l 785 571 l 164 333 l 685 96 l 678 68 z "},"=":{"ha":875,"x_min":118,"x_max":899,"o":"m 892 408 l 156 408 l 163 435 l 899 435 l 892 408 m 854 232 l 118 232 l 125 258 l 861 258 l 854 232 z "},">":{"ha":743,"x_min":81,"x_max":739,"o":"m 732 318 l 81 68 l 88 96 l 708 333 l 188 571 l 194 599 l 739 350 l 732 318 z "},"?":{"ha":729,"x_min":207,"x_max":817,"o":"m 371 15 q 353 0 368 0 q 342 15 339 0 l 361 106 q 378 119 364 119 q 390 106 393 119 l 371 15 m 207 714 q 346 900 250 836 q 574 964 442 964 q 735 926 668 964 q 817 790 817 879 q 626 514 817 649 q 428 274 453 392 l 421 240 l 390 240 l 396 265 q 585 514 424 400 q 721 625 682 583 q 786 788 786 697 q 713 907 786 868 q 565 938 654 938 q 231 699 306 938 l 207 714 z "},"@":{"ha":1167,"x_min":171,"x_max":1210,"o":"m 839 261 l 872 361 q 549 181 742 182 q 371 272 415 179 q 351 361 351 313 q 372 478 351 414 q 517 693 418 613 q 758 781 621 779 q 909 738 860 782 q 956 603 958 693 l 1017 781 l 1042 781 l 864 261 q 863 253 864 257 q 883 231 858 231 q 972 267 919 231 q 1047 332 1018 297 q 1179 640 1179 489 q 1094 840 1179 758 q 811 940 989 940 q 428 810 597 940 q 215 472 260 681 q 204 367 204 417 q 290 136 204 231 q 611 10 404 10 q 868 67 738 10 q 1079 219 1004 125 l 1114 219 q 889 50 1038 118 q 614 -15 746 -15 q 267 119 392 -15 q 171 368 171 222 q 183 479 171 421 q 411 831 229 693 q 811 965 589 965 q 1118 860 1006 965 q 1210 644 1210 774 q 1200 556 1210 603 q 1060 304 1172 422 q 971 236 1022 265 q 868 200 911 200 q 833 231 833 200 q 839 261 833 243 m 915 482 q 936 599 936 543 q 746 758 936 761 q 508 657 613 757 q 382 428 411 564 q 375 363 375 393 q 424 242 375 283 q 556 201 474 201 q 776 286 674 203 q 915 482 874 365 z "},"A":{"ha":883,"x_min":7,"x_max":876,"o":"m 876 0 l 844 0 l 775 310 l 244 310 l 42 0 l 7 0 l 631 942 l 668 942 l 876 0 m 769 336 l 643 907 l 263 336 l 769 336 z "},"B":{"ha":892,"x_min":68,"x_max":965,"o":"m 894 253 q 746 56 867 122 q 499 0 644 0 l 68 0 l 268 942 l 717 942 q 885 903 819 942 q 965 761 965 857 q 960 704 965 735 q 863 561 942 619 q 700 490 794 510 q 901 314 901 465 q 894 253 901 286 m 932 711 q 938 757 938 735 q 861 882 938 840 q 708 915 800 915 l 292 915 l 204 504 l 619 504 q 815 553 733 504 q 932 711 910 608 m 865 251 q 872 304 872 279 q 785 443 872 399 q 611 478 717 478 l 199 478 l 103 26 l 521 26 q 736 78 646 26 q 865 251 842 138 z "},"C":{"ha":999,"x_min":154,"x_max":1096,"o":"m 949 154 q 543 -10 793 -10 q 224 118 325 -10 q 154 336 154 206 q 169 464 154 394 q 376 819 217 686 q 761 951 535 951 q 1096 790 1021 951 l 1067 774 q 756 925 1000 925 q 394 801 544 925 q 200 469 243 676 q 186 350 186 406 q 249 140 185 225 q 547 17 343 17 q 926 171 782 17 l 949 154 z "},"D":{"ha":944,"x_min":79,"x_max":1001,"o":"m 985 469 q 777 122 936 243 q 385 0 618 0 l 79 0 l 279 942 l 638 942 q 1001 618 1001 942 q 985 469 1001 551 m 956 469 q 972 614 972 549 q 631 915 972 915 l 303 915 l 114 26 l 394 26 q 763 140 615 26 q 956 469 910 254 z "},"E":{"ha":783,"x_min":79,"x_max":954,"o":"m 761 0 l 79 0 l 279 942 l 954 942 l 949 915 l 301 915 l 214 504 l 788 504 l 782 479 l 208 479 l 113 26 l 767 26 l 761 0 z "},"F":{"ha":701,"x_min":79,"x_max":904,"o":"m 899 915 l 301 915 l 214 504 l 725 504 l 719 479 l 208 479 l 107 0 l 79 0 l 279 942 l 904 942 l 899 915 z "},"G":{"ha":1053,"x_min":132,"x_max":1106,"o":"m 1075 439 q 854 78 1047 197 q 542 -10 714 -10 q 251 71 358 -10 q 132 336 132 163 q 147 468 132 397 q 352 821 194 690 q 736 951 510 951 q 996 885 901 951 q 1104 647 1106 806 l 1074 647 q 732 925 1072 925 q 369 802 518 925 q 176 469 221 679 q 161 343 161 401 q 274 93 161 179 q 547 17 375 17 q 853 107 717 17 q 1032 365 997 204 l 1042 413 l 638 413 l 643 439 l 1075 439 z "},"H":{"ha":944,"x_min":79,"x_max":1065,"o":"m 865 0 l 836 0 l 938 479 l 210 479 l 108 0 l 79 0 l 279 942 l 308 942 l 215 504 l 943 504 l 1036 942 l 1065 942 l 865 0 z "},"I":{"ha":186,"x_min":79,"x_max":308,"o":"m 108 0 l 79 0 l 279 942 l 308 942 l 108 0 z "},"J":{"ha":675,"x_min":68,"x_max":789,"o":"m 644 264 q 308 -10 588 -10 q 68 167 69 -10 q 71 201 68 183 l 100 201 q 97 168 97 183 q 308 17 97 17 q 518 76 447 17 q 618 272 589 135 l 760 942 l 789 942 l 644 264 z "},"K":{"ha":931,"x_min":79,"x_max":1074,"o":"m 903 0 l 864 0 l 443 525 l 182 347 l 108 0 l 79 0 l 279 942 l 308 942 l 189 382 l 1029 942 l 1074 942 l 471 540 l 903 0 z "},"L":{"ha":701,"x_min":79,"x_max":708,"o":"m 703 0 l 79 0 l 279 942 l 308 942 l 114 26 l 708 26 l 703 0 z "},"M":{"ha":1138,"x_min":79,"x_max":1257,"o":"m 1057 0 l 1028 0 l 1222 914 l 585 0 l 553 0 l 303 914 l 108 0 l 79 0 l 279 942 l 326 942 l 575 32 l 1211 942 l 1257 942 l 1057 0 z "},"N":{"ha":944,"x_min":79,"x_max":1065,"o":"m 865 0 l 822 0 l 303 913 l 108 0 l 79 0 l 279 942 l 322 942 q 583 486 406 788 q 843 31 760 185 l 1036 942 l 1065 942 l 865 0 z "},"O":{"ha":1051,"x_min":133,"x_max":1122,"o":"m 1106 471 q 904 119 1058 249 q 525 -10 750 -10 q 243 74 346 -10 q 133 335 133 163 q 149 471 133 397 q 348 815 196 692 q 725 938 500 938 q 1008 857 904 938 q 1121 597 1122 768 q 1106 471 1119 539 m 1076 471 q 1090 594 1090 538 q 985 836 1090 754 q 719 911 888 911 q 365 794 508 911 q 178 471 222 678 q 164 346 164 404 q 228 140 164 224 q 531 17 322 17 q 889 140 742 17 q 1076 471 1032 261 z "},"P":{"ha":863,"x_min":79,"x_max":971,"o":"m 963 682 q 817 486 936 553 q 572 429 714 429 l 200 429 l 108 0 l 79 0 l 279 942 l 696 942 q 971 753 971 942 q 963 682 971 719 m 932 681 q 940 746 940 715 q 699 915 940 915 l 303 915 l 206 456 l 603 456 q 810 511 719 456 q 932 681 910 572 z "},"Q":{"ha":1051,"x_min":133,"x_max":1121,"o":"m 1106 471 q 953 167 1067 289 q 656 4 833 42 q 790 -65 694 -65 l 918 -65 l 913 -92 l 785 -92 q 626 -1 671 -92 q 525 -10 578 -10 q 243 74 346 -10 q 133 335 133 163 q 149 471 133 397 q 348 815 196 692 q 725 938 500 938 q 1007 858 903 938 q 1121 601 1121 771 q 1106 471 1121 542 m 1076 471 q 1090 596 1090 538 q 983 838 1090 756 q 719 911 888 911 q 365 794 508 911 q 178 471 222 678 q 164 347 164 406 q 238 131 164 217 q 332 244 265 200 q 475 288 399 288 q 595 247 544 288 q 647 139 646 207 q 643 102 647 126 q 639 65 639 78 q 644 28 639 47 q 929 182 815 63 q 1076 471 1040 297 m 619 24 q 613 65 613 44 q 617 99 613 76 q 621 135 621 122 q 574 229 621 194 q 469 263 532 263 q 337 220 399 263 q 257 111 275 178 q 531 17 356 17 q 619 24 576 17 z "},"R":{"ha":892,"x_min":79,"x_max":979,"o":"m 972 704 q 708 458 929 506 q 864 292 864 426 q 857 229 864 263 l 808 0 l 779 0 l 826 225 q 833 281 833 256 q 593 440 833 440 l 201 440 l 108 0 l 79 0 l 279 942 l 713 942 q 979 767 979 942 q 972 704 979 738 m 942 700 q 949 757 949 731 q 710 915 949 915 l 303 915 l 208 468 l 593 468 q 813 521 721 468 q 942 700 917 582 z "},"S":{"ha":892,"x_min":104,"x_max":956,"o":"m 872 229 q 706 40 846 104 q 457 -10 596 -10 q 104 224 104 -10 q 113 297 104 257 l 117 311 l 146 311 l 143 303 q 135 229 135 264 q 464 17 135 17 q 696 61 599 17 q 844 233 819 118 q 850 285 850 261 q 721 422 850 381 q 532 469 681 435 q 311 540 364 508 q 229 675 229 589 q 233 721 229 697 q 635 951 283 951 q 956 743 956 951 q 949 678 956 713 l 919 678 q 924 732 924 706 q 828 893 924 847 q 629 925 760 925 q 263 721 307 925 q 258 679 258 699 q 347 553 258 597 q 510 508 394 531 q 819 411 749 463 q 879 288 879 368 q 872 229 879 260 z "},"T":{"ha":757,"x_min":199,"x_max":953,"o":"m 947 915 l 588 915 l 393 0 l 364 0 l 558 915 l 199 915 l 204 942 l 953 942 l 947 915 z "},"U":{"ha":922,"x_min":140,"x_max":1042,"o":"m 915 347 q 764 76 876 161 q 460 -10 651 -10 q 140 232 140 -10 q 154 350 140 285 l 279 942 l 308 942 l 183 351 q 171 247 171 294 q 465 17 171 17 q 886 346 817 17 l 1013 942 l 1042 942 l 915 347 z "},"V":{"ha":872,"x_min":218,"x_max":1056,"o":"m 1056 942 l 458 0 l 426 0 l 218 942 l 247 942 l 450 31 l 1026 942 l 1056 942 z "},"W":{"ha":1347,"x_min":222,"x_max":1525,"o":"m 1525 942 l 943 0 l 911 0 l 796 563 l 447 0 l 415 0 l 222 942 l 251 942 l 439 31 l 788 599 l 718 942 l 747 942 l 935 31 l 1496 942 l 1525 942 z "},"X":{"ha":839,"x_min":3,"x_max":1022,"o":"m 838 0 l 801 0 l 521 463 l 39 0 l 3 0 l 506 485 l 224 942 l 263 942 l 529 506 l 985 942 l 1022 942 l 546 485 l 838 0 z "},"Y":{"ha":869,"x_min":200,"x_max":1069,"o":"m 1069 942 l 549 463 l 450 0 l 421 0 l 519 463 l 200 942 l 236 942 l 539 490 l 1035 942 l 1069 942 z "},"Z":{"ha":869,"x_min":51,"x_max":1008,"o":"m 819 0 l 51 0 l 60 36 l 974 915 l 286 915 l 292 942 l 1008 942 l 1001 907 l 86 26 l 825 26 l 819 0 z "},"[":{"ha":324,"x_min":90,"x_max":521,"o":"m 254 -233 l 90 -233 l 357 1019 l 521 1019 l 515 993 l 381 993 l 125 -207 l 260 -207 l 254 -233 z "},"\\":{"ha":486,"x_min":194,"x_max":486,"o":"m 486 0 l 457 0 l 194 964 l 224 964 l 486 0 z "},"]":{"ha":324,"x_min":-31,"x_max":400,"o":"m 400 1019 l 132 -233 l -31 -233 l -25 -207 l 108 -207 l 125 -140 l 364 993 l 231 993 l 236 1019 l 400 1019 z "},"^":{"ha":414,"x_min":236,"x_max":479,"o":"m 479 710 l 446 710 l 389 871 l 265 710 l 236 710 l 379 897 l 408 897 l 479 710 z "},"_":{"ha":729,"x_min":-35,"x_max":708,"o":"m 694 -165 l -35 -165 l -21 -99 l 708 -99 l 694 -165 z "},"`":{"ha":268,"x_min":229,"x_max":393,"o":"m 386 757 q 381 738 393 746 q 358 740 369 731 l 238 910 q 243 931 229 922 q 265 928 256 940 l 386 757 z "},"a":{"ha":783,"x_min":100,"x_max":840,"o":"m 693 0 l 664 0 l 706 196 q 358 -15 581 -15 q 140 88 207 -15 q 100 238 100 150 q 113 338 100 285 q 249 592 146 494 q 514 694 358 694 q 688 640 621 694 q 767 482 756 586 l 811 692 l 840 692 l 693 0 m 736 338 q 747 436 747 390 q 682 608 747 549 q 501 668 617 668 q 263 569 364 668 q 140 338 169 478 q 129 243 129 288 q 190 73 129 135 q 363 11 251 11 q 606 107 500 11 q 736 338 706 199 z "},"b":{"ha":783,"x_min":81,"x_max":814,"o":"m 801 336 q 667 85 768 178 q 403 -14 560 -14 q 232 42 301 -14 q 151 197 163 99 l 110 0 l 81 0 l 281 942 l 310 942 l 213 482 q 353 638 263 582 q 554 694 443 694 q 746 629 678 694 q 814 443 814 564 q 801 336 814 393 m 775 338 q 786 438 786 392 q 726 607 786 546 q 554 668 665 668 q 304 574 404 668 q 181 333 213 486 q 171 251 171 290 q 215 104 171 165 q 417 13 279 13 q 654 108 556 13 q 775 338 744 196 z "},"c":{"ha":729,"x_min":104,"x_max":778,"o":"m 721 196 q 583 40 676 94 q 378 -15 490 -15 q 181 47 253 -15 q 104 233 104 113 q 115 326 104 276 q 263 594 150 493 q 543 694 376 694 q 704 649 642 694 q 778 503 774 597 l 749 489 q 535 668 742 668 q 280 573 383 668 q 144 326 176 478 q 135 240 135 281 q 201 70 135 129 q 382 11 268 11 q 572 63 485 11 q 696 208 658 115 l 721 196 z "},"d":{"ha":783,"x_min":100,"x_max":893,"o":"m 693 0 l 664 0 l 706 196 q 358 -15 581 -15 q 140 88 207 -15 q 100 238 100 150 q 113 338 100 285 q 249 592 146 494 q 514 694 358 694 q 688 640 621 694 q 767 482 756 586 l 864 942 l 893 942 l 693 0 m 736 338 q 747 436 747 390 q 682 608 747 549 q 501 668 617 668 q 263 569 364 668 q 140 338 169 478 q 129 243 129 288 q 190 73 129 135 q 363 11 251 11 q 606 107 500 11 q 736 338 706 199 z "},"e":{"ha":729,"x_min":94,"x_max":786,"o":"m 769 335 l 135 333 q 124 229 124 276 q 367 11 124 11 q 549 57 464 11 q 682 186 635 103 l 713 186 q 565 35 663 86 q 358 -15 474 -15 q 94 226 94 -15 q 108 338 94 278 q 251 594 140 493 q 515 694 361 694 q 710 635 638 694 q 786 453 786 571 q 776 365 786 413 l 769 335 m 739 360 q 749 443 749 404 q 684 609 749 550 q 510 668 619 668 q 274 583 372 668 q 140 360 176 497 l 739 360 z "},"f":{"ha":371,"x_min":142,"x_max":650,"o":"m 644 900 q 314 672 363 900 l 299 604 l 453 604 l 447 576 l 293 576 l 171 -1 l 142 -1 l 264 576 l 164 576 l 169 604 l 269 604 l 285 672 q 650 925 339 925 l 644 900 z "},"g":{"ha":757,"x_min":72,"x_max":824,"o":"m 685 24 q 317 -249 626 -249 q 151 -214 215 -249 q 72 -75 72 -169 q 76 -35 72 -56 l 106 -35 q 103 -67 103 -51 q 324 -222 103 -222 q 656 25 603 -222 l 693 201 q 552 63 643 114 q 360 11 461 11 q 174 76 242 11 q 106 256 106 140 q 117 350 106 300 q 255 599 149 503 q 514 694 361 694 q 681 642 615 694 q 753 486 749 585 l 794 678 l 824 678 l 685 24 m 724 347 q 733 432 733 392 q 696 571 733 511 q 506 668 636 668 q 272 577 371 668 q 146 351 174 486 q 135 263 135 304 q 195 97 135 157 q 363 38 256 38 q 597 124 500 38 q 724 347 694 210 z "},"h":{"ha":729,"x_min":81,"x_max":750,"o":"m 646 0 l 617 0 l 713 449 q 719 507 719 481 q 661 631 719 589 q 524 668 610 668 q 308 588 397 668 q 190 382 218 508 l 110 0 l 81 0 l 281 942 l 310 942 l 217 501 q 343 646 257 594 q 528 694 424 694 q 682 656 622 694 q 750 521 750 610 q 744 463 750 493 l 646 0 z "},"i":{"ha":189,"x_min":81,"x_max":310,"o":"m 290 849 q 271 838 279 838 q 261 849 263 838 l 281 942 q 296 954 289 954 q 310 942 303 954 l 290 849 m 110 0 l 81 0 l 225 678 l 254 678 l 110 0 z "},"j":{"ha":189,"x_min":-258,"x_max":310,"o":"m 290 849 q 271 838 279 838 q 261 849 263 838 l 281 942 q 296 954 289 954 q 310 942 303 954 l 290 849 m 111 24 q -258 -249 53 -249 l -253 -224 q 82 25 29 -224 l 221 678 l 250 678 l 111 24 z "},"k":{"ha":739,"x_min":81,"x_max":814,"o":"m 693 0 l 654 0 l 374 401 l 167 269 l 110 0 l 81 0 l 281 942 l 310 942 l 174 303 l 758 679 l 814 678 l 400 419 l 693 0 z "},"l":{"ha":189,"x_min":81,"x_max":310,"o":"m 110 0 l 81 0 l 281 942 l 310 942 l 110 0 z "},"m":{"ha":1135,"x_min":81,"x_max":1160,"o":"m 1053 0 l 1024 0 l 1119 449 q 1128 524 1128 490 q 964 668 1128 668 q 775 603 854 668 q 674 429 696 538 l 582 0 l 553 0 l 649 449 q 657 521 657 489 q 489 668 657 668 q 292 579 375 668 q 190 382 217 500 l 110 0 l 81 0 l 225 678 l 254 678 l 217 501 q 332 642 253 590 q 508 694 411 694 q 639 652 589 694 q 690 531 689 610 q 967 694 778 694 q 1160 536 1160 694 q 1151 463 1160 503 l 1053 0 z "},"n":{"ha":729,"x_min":81,"x_max":750,"o":"m 646 0 l 617 0 l 713 449 q 719 507 719 481 q 661 631 719 589 q 524 668 610 668 q 308 588 397 668 q 190 382 218 508 l 110 0 l 81 0 l 225 678 l 254 678 l 217 501 q 343 646 257 594 q 528 694 424 694 q 682 656 622 694 q 750 521 750 610 q 744 463 750 493 l 646 0 z "},"o":{"ha":757,"x_min":101,"x_max":801,"o":"m 790 339 q 647 85 757 181 q 375 -15 533 -15 q 176 52 250 -15 q 101 242 101 119 q 113 339 101 288 q 258 596 146 497 q 528 694 369 694 q 728 627 654 694 q 801 436 801 560 q 790 339 801 390 m 761 339 q 771 431 771 388 q 704 606 771 544 q 521 668 638 668 q 272 574 375 668 q 142 339 172 485 q 132 250 132 292 q 199 74 132 138 q 382 11 267 11 q 631 104 526 11 q 761 339 731 194 z "},"p":{"ha":783,"x_min":31,"x_max":815,"o":"m 803 342 q 669 86 769 182 q 404 -15 563 -15 q 229 39 297 -15 q 151 197 161 93 l 60 -233 l 31 -233 l 225 678 l 254 678 l 213 481 q 352 637 261 579 q 553 694 443 694 q 746 630 676 694 q 815 444 815 565 q 803 342 815 397 m 775 340 q 786 435 786 392 q 726 606 786 543 q 556 668 665 668 q 311 575 415 668 q 183 344 213 485 q 171 240 171 288 q 415 11 171 11 q 654 108 556 11 q 775 340 744 197 z "},"q":{"ha":783,"x_min":101,"x_max":836,"o":"m 642 -233 l 613 -233 l 704 194 q 356 -15 597 -15 q 142 92 207 -15 q 101 244 101 157 q 113 342 101 290 q 250 592 146 494 q 511 694 361 694 q 688 640 619 694 q 765 481 756 586 l 807 678 l 836 678 l 642 -233 m 736 340 q 746 429 746 388 q 679 605 746 542 q 499 668 613 668 q 263 571 361 668 q 142 340 172 481 q 132 247 132 290 q 167 110 132 168 q 361 11 225 11 q 610 103 510 11 q 736 340 704 190 z "},"r":{"ha":442,"x_min":81,"x_max":553,"o":"m 547 668 q 289 540 393 668 q 167 268 201 435 l 110 0 l 81 0 l 225 678 l 254 678 l 200 422 q 328 619 222 543 q 553 694 428 694 l 547 668 z "},"s":{"ha":675,"x_min":99,"x_max":708,"o":"m 640 169 q 528 22 619 71 q 342 -18 453 -18 q 99 161 99 -18 q 107 233 99 194 l 139 233 q 131 169 131 199 q 350 11 131 11 q 510 46 442 11 q 608 169 590 88 q 611 196 611 183 q 485 313 611 281 q 347 336 474 315 q 190 469 190 363 q 194 507 190 488 q 297 649 213 597 q 469 696 372 696 q 708 536 707 696 q 701 476 708 508 l 668 476 q 674 528 674 504 q 471 667 674 667 q 319 628 386 667 q 226 507 242 585 q 222 481 222 493 q 350 372 222 397 q 492 344 385 365 q 644 208 644 315 q 640 169 644 190 z "},"t":{"ha":365,"x_min":160,"x_max":472,"o":"m 467 613 l 326 613 l 196 0 l 169 0 l 297 613 l 160 613 l 165 639 l 303 639 l 349 853 l 378 853 l 332 639 l 472 639 l 467 613 z "},"u":{"ha":729,"x_min":122,"x_max":790,"o":"m 646 0 l 617 0 l 653 172 q 528 33 610 82 q 344 -15 446 -15 q 189 25 247 -15 q 122 164 122 72 q 129 232 122 196 l 225 678 l 254 678 l 160 233 q 153 171 153 200 q 211 47 153 89 q 350 11 263 11 q 572 96 483 11 q 682 310 654 174 l 761 678 l 790 678 l 646 0 z "},"v":{"ha":654,"x_min":157,"x_max":788,"o":"m 788 678 l 358 0 l 322 0 l 157 678 l 193 678 l 344 22 l 756 678 l 788 678 z "},"w":{"ha":1071,"x_min":183,"x_max":1178,"o":"m 1178 678 l 764 0 l 726 0 l 632 428 l 369 0 l 333 0 l 183 678 l 218 678 l 356 22 l 624 467 l 576 678 l 613 678 l 749 22 l 1146 678 l 1178 678 z "},"x":{"ha":649,"x_min":6,"x_max":761,"o":"m 643 0 l 607 0 l 394 331 l 42 0 l 6 0 l 382 351 l 178 678 l 215 678 l 403 371 l 726 678 l 761 678 l 418 351 l 643 0 z "},"y":{"ha":729,"x_min":39,"x_max":790,"o":"m 651 24 q 282 -249 593 -249 q 118 -212 181 -249 q 39 -75 39 -168 q 43 -35 39 -56 l 72 -35 q 69 -67 69 -51 q 290 -222 69 -222 q 622 25 569 -222 l 653 172 q 528 33 610 82 q 344 -15 446 -15 q 189 25 247 -15 q 122 164 122 72 q 129 232 122 196 l 225 678 l 254 678 l 160 233 q 153 171 153 200 q 211 47 153 89 q 350 11 263 11 q 572 96 483 11 q 682 310 654 174 l 761 678 l 790 678 l 651 24 z "},"z":{"ha":657,"x_min":39,"x_max":739,"o":"m 618 0 l 39 0 l 46 33 l 703 651 l 218 651 l 224 678 l 739 678 l 732 646 l 75 26 l 624 26 l 618 0 z "},"{":{"ha":486,"x_min":201,"x_max":569,"o":"m 303 -233 l 288 -233 q 201 -150 201 -233 q 207 -101 201 -129 l 275 217 q 274 335 293 303 q 204 382 263 354 l 210 406 q 299 451 279 432 q 350 569 332 483 l 418 888 q 554 1019 446 1019 l 569 1019 l 564 993 l 550 993 q 467 943 494 993 q 440 853 453 918 l 379 567 q 326 443 360 479 q 238 393 306 421 q 306 344 294 365 q 306 219 324 310 l 244 -65 q 233 -157 231 -132 q 294 -207 239 -207 l 308 -207 l 303 -233 z "},"|":{"ha":324,"x_min":138,"x_max":385,"o":"m 167 -44 l 138 -44 l 356 981 l 385 981 l 167 -44 z "},"}":{"ha":486,"x_min":74,"x_max":442,"o":"m 74 -233 l 89 -233 q 225 -101 197 -233 l 293 217 q 344 335 311 303 q 433 382 365 354 l 439 406 q 369 451 382 432 q 368 569 350 483 l 436 888 q 442 936 442 915 q 356 1019 442 1019 l 340 1019 l 335 993 l 349 993 q 410 943 404 993 q 400 853 413 918 l 339 567 q 339 443 319 479 q 406 393 350 421 q 318 344 338 365 q 265 219 283 310 l 204 -65 q 176 -157 190 -132 q 93 -207 149 -207 l 79 -207 l 74 -233 z "},"~":{"ha":761,"x_min":182,"x_max":818,"o":"m 743 529 q 681 493 706 500 q 632 488 667 488 q 492 540 593 488 q 360 593 390 593 q 226 486 267 593 l 182 486 q 256 588 203 546 q 369 631 310 631 q 506 577 406 631 q 639 524 607 524 q 721 556 685 524 q 774 633 757 588 l 818 633 q 743 529 796 571 z "},"¡":{"ha":269,"x_min":92,"x_max":322,"o":"m 240 569 l 269 569 l 121 -132 l 92 -132 l 240 569 m 290 794 q 308 810 293 810 q 319 794 322 810 l 300 704 q 283 690 297 690 q 271 704 268 690 l 290 794 z "},"¢":{"ha":729,"x_min":104,"x_max":778,"o":"m 215 60 l 628 654 q 535 668 586 668 q 280 573 383 668 q 144 326 176 478 q 135 240 135 281 q 215 60 135 124 m 733 765 l 668 671 q 778 503 771 622 l 749 489 q 651 646 743 601 l 236 46 q 382 11 294 11 q 572 63 485 11 q 696 208 658 115 l 721 196 q 583 40 676 94 q 378 -15 490 -15 q 218 21 283 -15 l 168 -50 l 139 -50 l 199 35 q 104 236 104 106 q 115 326 106 278 q 263 594 150 493 q 543 694 376 694 q 644 679 599 694 l 704 765 l 733 765 z "},"£":{"ha":811,"x_min":126,"x_max":917,"o":"m 628 351 l 258 351 l 256 338 q 244 249 244 290 q 312 73 244 136 q 494 10 379 10 q 739 100 633 10 l 757 82 q 490 -17 642 -17 q 292 50 364 -17 q 215 242 215 118 q 226 338 215 286 l 229 351 l 126 351 l 136 378 l 235 378 l 267 528 l 197 528 l 208 554 l 272 554 l 276 576 q 419 832 310 735 q 693 932 535 932 q 917 833 844 932 l 892 814 q 686 906 825 906 q 436 811 540 906 q 306 576 338 722 l 301 554 l 710 554 l 699 528 l 296 528 l 264 378 l 638 378 l 628 351 z "},"¤":{"ha":811,"x_min":156,"x_max":856,"o":"m 749 289 l 726 272 l 614 397 q 467 350 546 350 q 339 399 388 350 l 172 272 l 156 289 l 324 415 q 293 500 293 453 q 376 663 293 593 l 263 790 l 285 807 l 400 679 q 544 725 468 725 q 671 679 624 725 l 839 807 l 856 790 l 686 663 q 718 575 718 624 q 636 414 718 483 l 749 289 m 688 538 q 692 574 692 557 q 644 668 692 633 q 540 700 603 700 q 403 655 465 700 q 325 539 340 610 q 322 504 322 521 q 368 408 322 444 q 471 375 410 375 q 610 420 547 375 q 688 538 672 465 z "},"¥":{"ha":896,"x_min":178,"x_max":1083,"o":"m 796 179 l 501 179 l 464 0 l 435 0 l 472 179 l 178 179 l 183 206 l 478 206 l 510 356 l 215 356 l 221 382 l 515 382 l 533 463 l 214 942 l 250 942 l 553 490 l 1049 942 l 1083 942 l 563 463 l 544 382 l 839 382 l 833 356 l 539 356 l 507 206 l 801 206 l 796 179 z "},"¦":{"ha":324,"x_min":140,"x_max":382,"o":"m 289 528 l 260 528 l 353 967 l 382 967 l 289 528 m 169 -32 l 140 -32 l 233 407 l 263 407 l 169 -32 z "},"§":{"ha":811,"x_min":147,"x_max":822,"o":"m 754 379 q 528 197 721 225 q 661 71 661 164 q 658 38 661 56 q 556 -103 639 -51 q 383 -150 479 -150 q 147 8 147 -150 q 154 65 147 35 l 183 65 q 178 15 178 38 q 382 -124 178 -124 q 536 -86 471 -124 q 629 38 611 -43 q 632 68 632 54 q 531 168 632 146 l 326 213 q 247 265 279 228 q 214 349 214 301 q 221 389 214 368 q 442 556 263 531 q 307 686 306 589 q 311 717 307 700 q 414 857 329 806 q 585 904 489 904 q 822 746 822 904 q 815 688 822 718 l 786 688 q 792 738 792 714 q 588 878 793 878 q 433 839 501 878 q 340 717 357 796 q 336 689 336 703 q 401 601 336 631 q 574 558 431 589 q 685 526 644 551 q 758 417 758 490 q 754 379 758 399 m 725 379 q 504 535 724 535 q 260 418 321 535 q 250 361 250 388 q 325 250 250 289 q 465 219 385 219 q 626 254 558 219 q 725 379 707 296 z "},"¨":{"ha":297,"x_min":215,"x_max":429,"o":"m 410 776 q 390 760 406 760 q 381 776 376 760 l 397 853 q 414 867 400 867 q 426 853 429 867 l 410 776 m 249 776 q 231 760 244 760 q 219 776 215 760 l 236 853 q 254 867 239 867 q 265 853 268 867 l 249 776 z "},"©":{"ha":778,"x_min":186,"x_max":871,"o":"m 863 631 q 719 413 835 497 q 465 328 604 328 q 272 386 349 328 q 186 561 186 450 q 193 629 186 593 q 338 847 222 761 q 592 933 453 933 q 785 872 706 933 q 871 696 871 806 q 863 631 871 664 m 831 629 q 838 689 838 660 q 761 849 838 788 q 588 904 690 904 q 358 829 461 904 q 225 631 251 751 q 219 571 219 600 q 296 411 219 472 q 468 356 367 356 q 700 432 594 356 q 831 629 806 508 m 696 572 q 500 435 626 435 q 382 469 426 435 q 332 578 332 507 q 338 626 332 600 q 420 762 356 713 q 574 811 485 811 q 717 679 724 811 l 683 679 q 567 782 685 782 q 439 740 493 782 q 369 626 385 697 q 365 585 365 604 q 407 494 365 526 q 506 464 444 464 q 661 572 606 464 l 696 572 z "},"ª":{"ha":525,"x_min":200,"x_max":660,"o":"m 568 485 l 536 485 l 556 575 q 361 475 482 475 q 243 517 286 475 q 200 633 200 560 q 207 694 200 661 q 294 853 228 792 q 457 914 360 914 q 607 817 578 914 l 628 913 l 660 913 l 568 485 m 581 694 q 588 751 588 725 q 447 885 588 885 q 312 831 367 885 q 239 694 257 776 q 233 638 233 664 q 367 504 233 504 q 507 561 447 504 q 581 694 564 614 z "},"«":{"ha":543,"x_min":176,"x_max":582,"o":"m 421 544 l 415 514 l 208 381 l 358 246 l 353 219 l 176 367 l 182 393 l 421 544 m 582 544 l 576 514 l 369 381 l 519 246 l 514 219 l 338 367 l 343 393 l 582 544 z "},"¬":{"ha":836,"x_min":151,"x_max":839,"o":"m 789 186 l 760 186 l 804 393 l 151 393 l 157 419 l 839 419 l 789 186 z "},"®":{"ha":754,"x_min":172,"x_max":856,"o":"m 847 631 q 703 410 819 494 q 450 328 592 328 q 257 388 335 328 q 172 563 172 451 q 179 629 172 594 q 324 847 208 761 q 578 933 439 933 q 769 874 692 933 q 856 696 856 807 q 847 631 856 665 m 815 629 q 822 692 822 663 q 746 850 822 792 q 572 904 676 904 q 344 829 446 904 q 211 631 238 751 q 204 568 204 597 q 281 410 204 468 q 454 356 350 356 q 683 431 582 356 q 815 629 790 508 m 685 710 q 615 621 671 646 q 647 565 647 604 q 644 540 647 554 l 624 447 l 590 447 l 610 539 q 613 557 613 549 q 542 606 613 606 l 419 606 l 385 447 l 353 447 l 429 806 l 588 806 q 688 736 688 806 q 685 710 688 724 m 651 708 q 654 726 654 718 q 582 775 654 775 l 456 775 l 425 636 l 544 636 q 651 708 636 636 z "},"°":{"ha":583,"x_min":232,"x_max":657,"o":"m 653 724 q 563 588 635 642 q 406 535 490 535 q 286 574 336 535 q 232 682 232 615 q 238 722 232 701 q 326 856 254 803 q 483 910 399 910 q 603 872 554 910 q 657 763 657 832 q 653 724 657 744 m 626 722 q 631 760 631 742 q 583 853 631 818 q 479 885 542 885 q 343 840 406 885 q 265 724 281 794 q 261 689 261 706 q 307 593 261 629 q 411 560 349 560 q 549 605 486 560 q 626 722 611 650 z "},"±":{"ha":875,"x_min":157,"x_max":794,"o":"m 789 336 l 522 336 l 471 93 l 442 93 l 493 336 l 228 336 l 233 363 l 499 363 l 550 601 l 579 601 l 528 363 l 794 363 l 789 336 m 718 -4 l 157 -4 l 164 24 l 725 24 l 718 -4 z "},"²":{"ha":544,"x_min":125,"x_max":636,"o":"m 569 356 l 125 356 q 374 621 158 511 l 504 688 q 604 807 604 739 q 464 890 603 890 q 246 719 282 890 l 213 719 q 465 919 256 919 q 636 814 635 919 q 632 778 636 797 q 513 660 618 714 l 376 590 q 167 383 196 497 l 576 383 l 569 356 z "},"³":{"ha":592,"x_min":172,"x_max":688,"o":"m 638 513 q 539 388 621 431 q 378 350 469 350 q 239 379 292 350 q 172 494 172 417 q 176 539 172 515 l 181 554 l 215 554 l 210 526 q 206 496 206 510 q 264 404 206 435 q 378 379 311 379 q 517 408 457 379 q 604 513 590 443 q 608 544 608 529 q 451 642 608 642 l 401 642 l 408 671 l 460 671 q 651 782 628 671 q 653 801 653 792 q 597 874 653 850 q 499 890 556 890 q 271 729 304 890 l 238 729 q 504 919 278 919 q 621 899 574 919 q 688 810 688 871 q 685 782 688 797 q 547 656 663 682 q 642 550 642 632 q 638 513 642 532 z "},"´":{"ha":294,"x_min":204,"x_max":444,"o":"m 431 910 l 238 740 q 215 738 225 729 q 218 757 204 746 l 411 928 q 435 931 425 940 q 431 910 444 922 z "},"µ":{"ha":729,"x_min":31,"x_max":790,"o":"m 590 -126 q 507 -108 544 -126 q 458 -46 458 -86 q 469 -6 458 -26 q 376 -15 426 -15 q 218 29 278 -15 q 146 172 151 78 l 60 -237 l 31 -237 l 225 678 l 254 678 l 175 310 q 165 217 165 260 q 382 11 165 11 q 568 69 493 11 q 667 233 643 126 l 761 678 l 790 678 l 694 232 q 538 19 663 81 q 497 -42 497 0 q 596 -96 497 -96 l 590 -126 z "},"¶":{"ha":689,"x_min":215,"x_max":803,"o":"m 564 -185 l 535 -185 l 768 915 l 649 915 l 415 -185 l 386 -185 l 500 350 q 279 424 360 342 q 215 579 215 488 q 224 646 215 611 q 371 863 251 778 q 624 943 485 943 q 632 942 628 943 l 803 942 l 564 -185 z "},"¸":{"ha":360,"x_min":-1,"x_max":285,"o":"m 282 -150 q 119 -242 263 -242 q -1 -219 68 -242 l 17 -194 q 121 -215 75 -215 q 249 -144 233 -215 q 176 -89 258 -96 q 122 -90 135 -85 l 124 -83 l 154 13 l 183 13 l 164 -64 q 186 -62 169 -62 q 285 -128 285 -62 q 282 -150 285 -137 z "},"¹":{"ha":399,"x_min":208,"x_max":483,"o":"m 367 361 l 331 361 l 438 863 l 264 764 l 208 764 l 453 907 l 483 907 l 367 361 z "},"º":{"ha":574,"x_min":206,"x_max":665,"o":"m 388 486 q 257 527 308 486 q 206 646 206 568 q 213 699 207 671 q 308 854 233 797 q 482 911 382 911 q 613 872 563 911 q 665 751 665 829 q 660 699 665 728 q 564 543 639 600 q 388 486 489 486 m 475 889 q 322 837 388 889 q 239 699 257 785 q 233 649 233 672 q 281 543 233 581 q 394 508 324 508 q 549 560 483 508 q 633 699 615 611 q 639 747 639 725 q 590 854 639 817 q 475 889 547 889 z "},"»":{"ha":529,"x_min":146,"x_max":550,"o":"m 375 544 l 369 514 l 518 381 l 313 246 l 307 219 l 544 367 l 550 393 l 375 544 m 214 544 l 208 514 l 357 381 l 151 246 l 146 219 l 383 367 l 389 393 l 214 544 z "},"¼":{"ha":1133,"x_min":249,"x_max":1096,"o":"m 1090 190 l 963 190 l 922 0 l 894 0 l 935 190 l 569 190 l 858 553 l 888 553 l 618 213 l 940 213 l 1013 553 l 1039 551 l 968 213 l 1096 213 l 1090 190 m 976 964 l 308 0 l 279 0 l 947 964 l 976 964 m 393 365 l 364 365 l 471 869 l 293 768 l 249 768 l 479 904 l 507 904 l 393 365 z "},"½":{"ha":1115,"x_min":233,"x_max":1111,"o":"m 1046 0 l 608 0 q 842 253 643 153 l 981 324 q 1083 422 1074 379 q 1086 450 1086 438 q 944 536 1086 536 q 724 364 761 536 l 697 364 q 943 558 739 558 q 1111 454 1111 558 q 1107 419 1111 438 q 999 310 1094 358 q 858 236 935 278 q 642 22 669 135 l 1050 22 l 1046 0 m 963 964 l 293 0 l 264 0 l 933 964 l 963 964 m 378 365 l 349 365 l 456 869 l 279 768 l 233 768 l 464 904 l 492 904 l 378 365 z "},"¾":{"ha":1258,"x_min":190,"x_max":1222,"o":"m 1217 190 l 1089 190 l 1049 0 l 1021 0 l 1061 190 l 696 190 l 986 553 l 1015 553 l 744 213 l 1067 213 l 1139 553 l 1165 551 l 1094 213 l 1222 213 l 1217 190 m 1104 964 l 435 0 l 406 0 l 1075 964 l 1104 964 m 651 513 q 553 390 635 433 q 393 354 483 354 q 190 490 190 354 q 196 539 190 513 l 199 551 l 225 551 l 221 526 q 217 496 217 510 q 278 401 217 433 q 394 376 325 376 q 536 407 474 376 q 625 513 611 443 q 629 546 629 531 q 468 646 629 646 l 422 646 l 426 668 l 474 668 q 671 782 646 668 q 672 804 672 793 q 515 894 672 894 q 283 733 319 894 l 257 733 q 518 917 299 917 q 700 810 700 917 q 697 782 700 796 q 549 656 676 685 q 656 546 656 629 q 651 513 656 531 z "},"¿":{"ha":729,"x_min":69,"x_max":678,"o":"m 515 817 q 532 832 518 832 q 544 817 547 832 l 525 726 q 507 713 522 713 q 496 726 493 713 l 515 817 m 678 118 q 540 -67 636 -3 q 314 -132 444 -132 q 150 -94 217 -132 q 69 42 69 -49 q 261 319 69 186 q 460 560 433 440 l 467 593 l 497 593 l 492 567 q 301 318 463 433 q 165 207 203 249 q 99 46 99 135 q 174 -74 99 -35 q 321 -106 232 -106 q 656 135 581 -106 l 678 118 z "},"À":{"ha":939,"x_min":35,"x_max":904,"o":"m 904 0 l 872 0 l 803 310 l 272 310 l 69 0 l 35 0 l 658 942 l 696 942 l 904 0 m 797 336 l 671 907 l 290 336 l 797 336 m 778 1015 q 772 996 786 1004 q 751 999 760 989 l 631 1169 q 636 1189 622 1181 q 657 1186 647 1199 l 778 1015 z "},"Á":{"ha":939,"x_min":35,"x_max":904,"o":"m 904 0 l 872 0 l 803 310 l 272 310 l 69 0 l 35 0 l 658 942 l 696 942 l 904 0 m 797 336 l 671 907 l 290 336 l 797 336 m 811 1172 l 618 1001 q 596 999 606 990 q 599 1018 586 1007 l 793 1189 q 815 1192 807 1201 q 811 1172 824 1183 z "},"Â":{"ha":939,"x_min":35,"x_max":904,"o":"m 904 0 l 872 0 l 803 310 l 272 310 l 69 0 l 35 0 l 658 942 l 696 942 l 904 0 m 797 336 l 671 907 l 290 336 l 797 336 m 833 989 l 800 989 l 715 1150 l 561 989 l 532 989 l 707 1176 l 736 1176 l 833 989 z "},"Ã":{"ha":939,"x_min":35,"x_max":904,"o":"m 904 0 l 872 0 l 803 310 l 272 310 l 69 0 l 35 0 l 658 942 l 696 942 l 904 0 m 797 336 l 671 907 l 290 336 l 797 336 m 904 1100 q 861 1037 894 1064 q 792 1010 828 1010 q 703 1048 769 1010 q 618 1086 636 1086 q 565 1062 590 1086 q 532 1008 540 1038 l 511 1025 q 554 1086 518 1060 q 626 1113 590 1113 q 712 1074 646 1113 q 797 1036 778 1036 q 851 1060 825 1036 q 883 1114 876 1085 l 904 1100 z "},"Ä":{"ha":939,"x_min":35,"x_max":904,"o":"m 904 0 l 872 0 l 803 310 l 272 310 l 69 0 l 35 0 l 658 942 l 696 942 l 904 0 m 797 336 l 671 907 l 290 336 l 797 336 m 785 1018 q 765 1003 781 1003 q 756 1018 751 1003 l 771 1094 q 789 1110 775 1110 q 800 1094 804 1110 l 785 1018 m 624 1018 q 606 1003 619 1003 q 594 1018 590 1003 l 610 1094 q 629 1110 614 1110 q 639 1094 643 1110 l 624 1018 z "},"Å":{"ha":939,"x_min":35,"x_max":904,"o":"m 904 0 l 872 0 l 803 310 l 272 310 l 69 0 l 35 0 l 658 942 l 696 942 l 904 0 m 797 336 l 671 907 l 290 336 l 797 336 m 686 1010 q 622 1031 649 1010 q 596 1089 596 1053 q 646 1185 596 1147 q 729 1213 685 1213 q 792 1192 767 1213 q 818 1135 818 1171 q 768 1039 818 1076 q 686 1010 732 1010 m 722 1183 q 657 1157 685 1183 q 629 1094 629 1131 q 692 1039 629 1039 q 758 1065 729 1039 q 786 1128 786 1090 q 722 1183 786 1183 z "},"Æ":{"ha":1496,"x_min":-18,"x_max":1625,"o":"m 957 506 m 926 506 l 1015 911 l 568 506 l 926 506 m 819 0 l 921 479 l 539 479 l 17 0 l -18 0 l 1011 942 l 1625 942 l 1619 915 l 1044 915 l 957 506 l 1021 506 l 1021 504 l 1458 504 l 1453 479 l 951 479 l 857 26 l 1438 26 l 1432 0 l 819 0 z "},"Ç":{"ha":999,"x_min":154,"x_max":1096,"o":"m 631 -150 q 468 -242 611 -242 q 346 -219 417 -242 l 365 -194 q 469 -215 424 -215 q 596 -144 581 -215 q 525 -89 606 -96 q 471 -90 483 -85 l 472 -83 l 503 13 l 532 13 l 513 -64 q 535 -62 518 -62 q 633 -128 633 -62 q 631 -150 633 -137 m 949 154 q 543 -10 793 -10 q 224 118 325 -10 q 154 336 154 206 q 169 464 154 394 q 376 819 217 686 q 761 951 535 951 q 1096 790 1021 951 l 1067 774 q 756 925 1000 925 q 394 801 544 925 q 200 469 243 676 q 186 350 186 406 q 249 140 185 225 q 547 17 343 17 q 926 171 782 17 l 949 154 z "},"È":{"ha":783,"x_min":79,"x_max":954,"o":"m 761 0 l 79 0 l 279 942 l 954 942 l 949 915 l 301 915 l 214 504 l 788 504 l 782 479 l 208 479 l 113 26 l 767 26 l 761 0 m 694 1003 q 689 983 703 992 q 668 986 676 975 l 547 1156 q 553 1175 539 1168 q 574 1174 565 1185 l 694 1003 z "},"É":{"ha":783,"x_min":79,"x_max":954,"o":"m 761 0 l 79 0 l 279 942 l 954 942 l 949 915 l 301 915 l 214 504 l 788 504 l 782 479 l 208 479 l 113 26 l 767 26 l 761 0 m 728 1156 l 535 986 q 511 983 522 975 q 514 1003 501 992 l 710 1174 q 732 1175 722 1185 q 728 1156 740 1167 z "},"Ê":{"ha":783,"x_min":79,"x_max":954,"o":"m 761 0 l 79 0 l 279 942 l 954 942 l 949 915 l 301 915 l 214 504 l 788 504 l 782 479 l 208 479 l 113 26 l 767 26 l 761 0 m 756 1003 l 721 1003 l 636 1164 l 482 1003 l 453 1003 l 628 1190 l 657 1190 l 756 1003 z "},"Ë":{"ha":783,"x_min":79,"x_max":954,"o":"m 761 0 l 79 0 l 279 942 l 954 942 l 949 915 l 301 915 l 214 504 l 788 504 l 782 479 l 208 479 l 113 26 l 767 26 l 761 0 m 706 1029 q 688 1014 701 1014 q 676 1029 672 1014 l 676 1029 l 692 1106 q 711 1121 696 1121 q 721 1106 725 1121 l 721 1106 l 706 1029 m 546 1029 q 526 1014 542 1014 q 517 1029 513 1014 l 517 1029 l 532 1106 q 550 1121 536 1121 q 561 1106 565 1121 l 561 1106 l 546 1029 z "},"Ì":{"ha":186,"x_min":79,"x_max":408,"o":"m 108 0 l 79 0 l 279 942 l 308 942 l 108 0 m 401 1024 q 396 1004 408 1013 q 374 1007 382 996 l 253 1176 q 258 1197 244 1189 q 281 1194 272 1207 l 401 1024 z "},"Í":{"ha":186,"x_min":79,"x_max":446,"o":"m 108 0 l 79 0 l 279 942 l 308 942 l 108 0 m 432 1172 l 239 1001 q 217 999 226 990 q 219 1018 206 1007 l 413 1189 q 436 1192 426 1201 q 432 1172 446 1183 z "},"Î":{"ha":186,"x_min":79,"x_max":457,"o":"m 108 0 l 79 0 l 279 942 l 308 942 l 108 0 m 457 997 l 424 997 l 338 1158 l 183 997 l 154 997 l 328 1185 l 357 1185 l 457 997 z "},"Ï":{"ha":186,"x_min":79,"x_max":428,"o":"m 108 0 l 79 0 l 279 942 l 308 942 l 108 0 m 410 1040 q 392 1024 407 1024 q 381 1040 378 1024 l 381 1040 l 397 1117 q 414 1131 400 1131 q 426 1117 428 1131 l 426 1117 l 410 1040 m 249 1040 q 232 1024 246 1024 q 218 1040 215 1024 l 218 1040 l 235 1117 q 254 1131 238 1131 q 265 1117 267 1131 l 265 1117 l 249 1040 z "},"Ð":{"ha":944,"x_min":79,"x_max":1001,"o":"m 176 458 l 125 458 l 131 486 l 182 486 l 279 942 l 638 942 q 1001 618 1001 942 q 985 469 1001 551 q 777 122 936 243 q 385 0 618 0 l 79 0 l 176 458 m 481 458 l 206 458 l 114 26 l 394 26 q 763 140 615 26 q 956 469 910 254 q 972 614 972 549 q 631 915 972 915 l 303 915 l 211 486 l 486 486 l 481 458 z "},"Ñ":{"ha":944,"x_min":79,"x_max":1065,"o":"m 865 0 l 822 0 l 303 913 l 108 0 l 79 0 l 279 942 l 322 942 q 583 486 406 788 q 843 31 760 185 l 1036 942 l 1065 942 l 865 0 m 893 1093 q 850 1029 883 1057 q 779 1001 817 1001 q 691 1040 757 1001 q 607 1078 625 1078 q 553 1053 579 1078 q 521 1000 528 1029 l 500 1017 q 543 1077 507 1050 q 614 1104 579 1104 q 701 1066 635 1104 q 785 1028 767 1028 q 840 1052 814 1028 q 872 1106 865 1076 l 893 1093 z "},"Ò":{"ha":1051,"x_min":133,"x_max":1122,"o":"m 1106 471 q 904 119 1058 249 q 525 -10 750 -10 q 243 74 346 -10 q 133 335 133 163 q 149 471 133 397 q 348 815 196 692 q 725 938 500 938 q 1008 857 904 938 q 1121 597 1122 768 q 1106 471 1119 539 m 1076 471 q 1090 594 1090 538 q 985 836 1090 754 q 719 911 888 911 q 365 794 508 911 q 178 471 222 678 q 164 346 164 404 q 228 140 164 224 q 531 17 322 17 q 889 140 742 17 q 1076 471 1032 261 m 833 1021 q 828 1001 842 1010 q 808 1004 815 994 l 686 1174 q 692 1194 679 1186 q 713 1192 704 1204 l 833 1021 z "},"Ó":{"ha":1051,"x_min":133,"x_max":1122,"o":"m 1106 471 q 904 119 1058 249 q 525 -10 750 -10 q 243 74 346 -10 q 133 335 133 163 q 149 471 133 397 q 348 815 196 692 q 725 938 500 938 q 1008 857 904 938 q 1121 597 1122 768 q 1106 471 1119 539 m 1076 471 q 1090 594 1090 538 q 985 836 1090 754 q 719 911 888 911 q 365 794 508 911 q 178 471 222 678 q 164 346 164 404 q 228 140 164 224 q 531 17 322 17 q 889 140 742 17 q 1076 471 1032 261 m 867 1179 l 674 1010 q 660 1004 665 1004 q 649 1010 650 1004 q 654 1026 644 1018 l 847 1197 q 872 1200 860 1208 q 867 1179 882 1192 z "},"Ô":{"ha":1051,"x_min":133,"x_max":1122,"o":"m 1106 471 q 904 119 1058 249 q 525 -10 750 -10 q 243 74 346 -10 q 133 335 133 163 q 149 471 133 397 q 348 815 196 692 q 725 938 500 938 q 1008 857 904 938 q 1121 597 1122 768 q 1106 471 1119 539 m 1076 471 q 1090 594 1090 538 q 985 836 1090 754 q 719 911 888 911 q 365 794 508 911 q 178 471 222 678 q 164 346 164 404 q 228 140 164 224 q 531 17 322 17 q 889 140 742 17 q 1076 471 1032 261 m 892 1014 l 858 1014 l 774 1174 l 619 1014 l 590 1014 l 764 1200 l 793 1200 l 892 1014 z "},"Õ":{"ha":1051,"x_min":133,"x_max":1122,"o":"m 1106 471 q 904 119 1058 249 q 525 -10 750 -10 q 243 74 346 -10 q 133 335 133 163 q 149 471 133 397 q 348 815 196 692 q 725 938 500 938 q 1008 857 904 938 q 1121 597 1122 768 q 1106 471 1119 539 m 1076 471 q 1090 594 1090 538 q 985 836 1090 754 q 719 911 888 911 q 365 794 508 911 q 178 471 222 678 q 164 346 164 404 q 228 140 164 224 q 531 17 322 17 q 889 140 742 17 q 1076 471 1032 261 m 957 1121 q 911 1058 944 1085 q 842 1031 878 1031 q 754 1069 821 1031 q 669 1107 688 1107 q 616 1083 640 1107 q 583 1029 592 1060 l 563 1046 q 606 1106 569 1079 q 676 1133 643 1133 q 765 1095 699 1133 q 847 1057 831 1057 q 902 1081 876 1057 q 936 1135 928 1106 l 957 1121 z "},"Ö":{"ha":1051,"x_min":133,"x_max":1122,"o":"m 1106 471 q 904 119 1058 249 q 525 -10 750 -10 q 243 74 346 -10 q 133 335 133 163 q 149 471 133 397 q 348 815 196 692 q 725 938 500 938 q 1008 857 904 938 q 1121 597 1122 768 q 1106 471 1119 539 m 1076 471 q 1090 594 1090 538 q 985 836 1090 754 q 719 911 888 911 q 365 794 508 911 q 178 471 222 678 q 164 346 164 404 q 228 140 164 224 q 531 17 322 17 q 889 140 742 17 q 1076 471 1032 261 m 842 1040 q 825 1024 839 1024 q 813 1040 810 1024 l 813 1040 l 829 1117 q 847 1131 832 1131 q 858 1117 860 1131 l 858 1117 l 842 1040 m 682 1040 q 664 1024 679 1024 q 653 1040 650 1024 l 653 1040 l 669 1117 q 686 1131 672 1131 q 699 1117 700 1131 l 699 1117 l 682 1040 z "},"×":{"ha":681,"x_min":169,"x_max":658,"o":"m 588 176 l 563 158 l 410 329 l 186 161 l 169 179 l 394 350 l 243 518 l 268 538 l 418 368 l 642 538 l 658 518 l 436 350 l 588 176 z "},"Ø":{"ha":1051,"x_min":135,"x_max":1119,"o":"m 326 61 l 900 883 q 719 911 824 911 q 365 794 508 911 q 178 471 222 678 q 164 351 164 408 q 204 182 164 258 q 326 61 247 99 m 922 874 l 350 50 q 531 17 425 17 q 889 140 742 17 q 1076 471 1032 261 q 1090 593 1090 536 q 922 874 1090 797 m 996 978 l 942 899 q 1119 597 1119 813 q 1106 471 1119 539 q 904 119 1058 249 q 525 -10 750 -10 q 331 24 413 -10 l 286 -40 l 257 -40 l 308 35 q 135 343 135 118 q 149 471 135 403 q 348 815 196 692 q 725 938 500 938 q 918 908 836 938 l 967 978 l 996 978 z "},"Ù":{"ha":922,"x_min":140,"x_max":1042,"o":"m 915 347 q 764 76 876 161 q 460 -10 651 -10 q 140 232 140 -10 q 154 350 140 285 l 279 942 l 308 942 l 183 351 q 171 247 171 294 q 465 17 171 17 q 886 346 817 17 l 1013 942 l 1042 942 l 915 347 m 767 1011 q 761 990 775 1000 q 739 993 750 983 l 618 1164 q 624 1183 610 1175 q 646 1181 636 1193 l 767 1011 z "},"Ú":{"ha":922,"x_min":140,"x_max":1042,"o":"m 915 347 q 764 76 876 161 q 460 -10 651 -10 q 140 232 140 -10 q 154 350 140 285 l 279 942 l 308 942 l 183 351 q 171 247 171 294 q 465 17 171 17 q 886 346 817 17 l 1013 942 l 1042 942 l 915 347 m 800 1167 l 606 996 q 583 993 593 986 q 586 1014 572 1001 l 779 1183 q 804 1186 793 1196 q 800 1167 813 1178 z "},"Û":{"ha":922,"x_min":140,"x_max":1042,"o":"m 915 347 q 764 76 876 161 q 460 -10 651 -10 q 140 232 140 -10 q 154 350 140 285 l 279 942 l 308 942 l 183 351 q 171 247 171 294 q 465 17 171 17 q 886 346 817 17 l 1013 942 l 1042 942 l 915 347 m 825 1000 l 792 1000 l 706 1161 l 551 1000 l 522 1000 l 697 1188 l 726 1188 l 825 1000 z "},"Ü":{"ha":922,"x_min":140,"x_max":1042,"o":"m 915 347 q 764 76 876 161 q 460 -10 651 -10 q 140 232 140 -10 q 154 350 140 285 l 279 942 l 308 942 l 183 351 q 171 247 171 294 q 465 17 171 17 q 886 346 817 17 l 1013 942 l 1042 942 l 915 347 m 776 1040 q 760 1024 774 1024 q 747 1040 744 1024 l 747 1040 l 764 1117 q 782 1131 767 1131 q 793 1117 796 1131 l 793 1117 l 776 1040 m 617 1040 q 599 1024 614 1024 q 588 1040 585 1024 l 588 1040 l 604 1117 q 621 1131 607 1131 q 633 1117 636 1131 l 633 1117 l 617 1040 z "},"Ý":{"ha":913,"x_min":222,"x_max":1092,"o":"m 1092 942 l 571 463 l 472 0 l 443 0 l 542 463 l 222 942 l 258 942 l 561 490 l 1057 942 l 1092 942 m 797 1172 l 603 1001 q 581 999 590 990 q 583 1018 571 1007 l 778 1189 q 801 1192 792 1201 q 797 1172 810 1183 z "},"Þ":{"ha":590,"x_min":81,"x_max":628,"o":"m 167 267 l 385 268 q 586 482 540 269 q 596 574 597 533 q 475 701 596 701 l 258 701 l 167 267 m 617 482 q 378 243 565 243 l 161 243 l 110 0 l 81 0 l 281 942 l 310 942 l 264 728 l 482 728 q 628 578 628 728 q 617 482 628 536 z "},"ß":{"ha":701,"x_min":81,"x_max":775,"o":"m 201 567 l 153 567 l 158 594 l 207 594 q 244 754 222 667 q 533 958 299 958 q 775 815 775 958 q 768 765 775 793 q 676 625 744 669 q 511 578 619 589 q 685 481 621 576 q 726 339 726 415 q 719 276 726 308 q 565 35 686 117 q 286 -42 456 -42 l 292 -15 q 690 276 629 -15 q 699 344 699 313 q 610 515 699 456 q 415 567 532 567 l 421 593 q 614 617 551 593 q 738 758 715 654 q 743 808 743 785 q 668 915 743 888 q 525 932 622 932 q 263 718 308 932 l 110 0 l 81 0 l 201 567 z "},"à":{"ha":767,"x_min":100,"x_max":840,"o":"m 693 0 l 664 0 l 706 196 q 358 -15 581 -15 q 140 88 207 -15 q 100 238 100 150 q 113 338 100 285 q 249 592 146 494 q 514 694 358 694 q 688 640 621 694 q 767 482 756 586 l 811 692 l 840 692 l 693 0 m 736 338 q 747 436 747 390 q 682 608 747 549 q 501 668 617 668 q 263 569 364 668 q 140 338 169 478 q 129 243 129 288 q 190 73 129 135 q 363 11 251 11 q 606 107 500 11 q 736 338 706 199 m 603 757 q 597 738 611 746 q 575 740 585 731 l 454 910 q 460 931 446 922 q 482 928 472 940 l 603 757 z "},"á":{"ha":767,"x_min":117,"x_max":857,"o":"m 710 0 l 681 0 l 722 196 q 375 -15 597 -15 q 157 88 224 -15 q 117 238 117 150 q 129 338 117 285 q 265 592 163 494 q 531 694 375 694 q 705 640 638 694 q 783 482 772 586 l 828 692 l 857 692 l 710 0 m 753 338 q 764 436 764 390 q 699 608 764 549 q 518 668 633 668 q 279 569 381 668 q 157 338 186 478 q 146 243 146 288 q 207 73 146 135 q 379 11 268 11 q 622 107 517 11 q 753 338 722 199 m 651 910 l 457 740 q 443 735 449 735 q 432 740 435 735 q 439 757 429 749 l 632 928 q 656 931 646 940 q 651 910 664 922 z "},"â":{"ha":767,"x_min":117,"x_max":857,"o":"m 710 0 l 681 0 l 722 196 q 375 -15 597 -15 q 157 88 224 -15 q 117 238 117 150 q 129 338 117 285 q 265 592 163 494 q 531 694 375 694 q 705 640 638 694 q 783 482 772 586 l 828 692 l 857 692 l 710 0 m 753 338 q 764 436 764 390 q 699 608 764 549 q 518 668 633 668 q 279 569 381 668 q 157 338 186 478 q 146 243 146 288 q 207 73 146 135 q 379 11 268 11 q 622 107 517 11 q 753 338 722 199 m 678 750 l 644 750 l 558 910 l 406 750 l 376 750 l 549 936 l 578 936 l 678 750 z "},"ã":{"ha":767,"x_min":117,"x_max":857,"o":"m 710 0 l 681 0 l 722 196 q 375 -15 597 -15 q 157 88 224 -15 q 117 238 117 150 q 129 338 117 285 q 265 592 163 494 q 531 694 375 694 q 705 640 638 694 q 783 482 772 586 l 828 692 l 857 692 l 710 0 m 753 338 q 764 436 764 390 q 699 608 764 549 q 518 668 633 668 q 279 569 381 668 q 157 338 186 478 q 146 243 146 288 q 207 73 146 135 q 379 11 268 11 q 622 107 517 11 q 753 338 722 199 m 740 857 q 696 794 729 821 q 625 767 663 767 q 537 805 603 767 q 454 843 471 843 q 401 819 425 843 q 367 765 376 796 l 347 782 q 390 842 354 815 q 461 869 426 869 q 548 831 482 869 q 631 793 614 793 q 686 817 660 793 q 719 871 713 842 l 740 857 z "},"ä":{"ha":767,"x_min":117,"x_max":857,"o":"m 710 0 l 681 0 l 722 196 q 375 -15 597 -15 q 157 88 224 -15 q 117 238 117 150 q 129 338 117 285 q 265 592 163 494 q 531 694 375 694 q 705 640 638 694 q 783 482 772 586 l 828 692 l 857 692 l 710 0 m 753 338 q 764 436 764 390 q 699 608 764 549 q 518 668 633 668 q 279 569 381 668 q 157 338 186 478 q 146 243 146 288 q 207 73 146 135 q 379 11 268 11 q 622 107 517 11 q 753 338 722 199 m 644 776 q 626 760 640 760 q 615 776 611 760 l 615 776 l 632 853 q 650 867 635 867 q 661 853 664 867 l 661 853 l 644 776 m 485 776 q 465 760 481 760 q 456 776 451 760 l 456 776 l 472 853 q 489 867 475 867 q 501 853 504 867 l 501 853 l 485 776 z "},"å":{"ha":767,"x_min":117,"x_max":857,"o":"m 710 0 l 681 0 l 722 196 q 375 -15 597 -15 q 157 88 224 -15 q 117 238 117 150 q 129 338 117 285 q 265 592 163 494 q 531 694 375 694 q 705 640 638 694 q 783 482 772 586 l 828 692 l 857 692 l 710 0 m 753 338 q 764 436 764 390 q 699 608 764 549 q 518 668 633 668 q 279 569 381 668 q 157 338 186 478 q 146 243 146 288 q 207 73 146 135 q 379 11 268 11 q 622 107 517 11 q 753 338 722 199 m 539 769 q 474 790 501 769 q 447 849 447 811 q 497 944 447 907 q 582 972 536 972 q 644 951 618 972 q 669 894 669 931 q 621 799 669 836 q 539 769 583 769 m 575 943 q 509 917 538 943 q 481 854 481 892 q 544 799 481 799 q 610 825 582 799 q 639 888 639 851 q 575 943 639 943 z "},"æ":{"ha":1367,"x_min":100,"x_max":1413,"o":"m 1396 335 l 764 333 l 757 299 q 747 213 746 251 q 994 11 747 11 q 1177 57 1092 11 q 1310 186 1263 103 l 1340 186 q 1192 36 1290 89 q 986 -15 1099 -15 q 729 167 763 -15 l 693 0 l 664 0 l 706 196 q 358 -15 581 -15 q 140 88 207 -15 q 100 238 100 150 q 113 338 100 285 q 249 592 146 494 q 514 694 358 694 q 688 640 621 694 q 767 482 756 586 l 811 692 l 840 692 l 797 493 q 883 593 831 547 q 1142 694 999 694 q 1336 635 1264 694 q 1413 453 1413 571 q 1403 365 1413 413 l 1396 335 m 1365 360 q 1375 443 1375 404 q 1310 609 1375 550 q 1136 668 1246 668 q 905 587 1010 668 q 774 382 800 506 l 769 360 l 1365 360 m 736 338 q 747 436 747 390 q 682 608 747 549 q 501 668 617 668 q 263 569 364 668 q 140 338 169 478 q 129 243 129 288 q 190 73 129 135 q 363 11 251 11 q 606 107 500 11 q 736 338 706 199 z "},"ç":{"ha":729,"x_min":104,"x_max":778,"o":"m 721 196 q 583 40 676 94 q 378 -15 490 -15 q 181 47 253 -15 q 104 233 104 113 q 115 326 104 276 q 263 594 150 493 q 543 694 376 694 q 704 649 642 694 q 778 503 774 597 l 749 489 q 535 668 742 668 q 280 573 383 668 q 144 326 176 478 q 135 240 135 281 q 201 70 135 129 q 382 11 268 11 q 572 63 485 11 q 696 208 658 115 l 721 196 m 499 -150 q 336 -242 479 -242 q 215 -219 286 -242 l 233 -194 q 338 -215 293 -215 q 465 -144 450 -215 q 393 -89 475 -96 q 339 -90 351 -85 l 340 -83 l 372 13 l 401 13 l 382 -64 q 403 -62 388 -62 q 501 -128 501 -62 q 499 -150 501 -137 z "},"è":{"ha":729,"x_min":94,"x_max":786,"o":"m 769 335 l 135 333 q 124 229 124 276 q 367 11 124 11 q 549 57 464 11 q 682 186 635 103 l 713 186 q 565 35 663 86 q 358 -15 474 -15 q 94 226 94 -15 q 108 338 94 278 q 251 594 140 493 q 515 694 361 694 q 710 635 638 694 q 786 453 786 571 q 776 365 786 413 l 769 335 m 739 360 q 749 443 749 404 q 684 609 749 550 q 510 668 619 668 q 274 583 372 668 q 140 360 176 497 l 739 360 m 617 757 q 611 738 625 746 q 589 740 599 731 l 467 910 q 472 931 460 922 q 494 928 486 940 l 617 757 z "},"é":{"ha":729,"x_min":94,"x_max":786,"o":"m 769 335 l 135 333 q 124 229 124 276 q 367 11 124 11 q 549 57 464 11 q 682 186 635 103 l 713 186 q 565 35 663 86 q 358 -15 474 -15 q 94 226 94 -15 q 108 338 94 278 q 251 594 140 493 q 515 694 361 694 q 710 635 638 694 q 786 453 786 571 q 776 365 786 413 l 769 335 m 739 360 q 749 443 749 404 q 684 609 749 550 q 510 668 619 668 q 274 583 372 668 q 140 360 176 497 l 739 360 m 650 913 l 456 743 q 442 738 447 738 q 431 743 433 738 q 436 760 426 751 l 629 931 q 654 933 642 942 q 656 924 657 929 q 650 913 656 919 z "},"ê":{"ha":729,"x_min":94,"x_max":786,"o":"m 769 335 l 135 333 q 124 229 124 276 q 367 11 124 11 q 549 57 464 11 q 682 186 635 103 l 713 186 q 565 35 663 86 q 358 -15 474 -15 q 94 226 94 -15 q 108 338 94 278 q 251 594 140 493 q 515 694 361 694 q 710 635 638 694 q 786 453 786 571 q 776 365 786 413 l 769 335 m 739 360 q 749 443 749 404 q 684 609 749 550 q 510 668 619 668 q 274 583 372 668 q 140 360 176 497 l 739 360 m 675 750 l 642 750 l 556 910 l 403 750 l 374 750 l 547 936 l 576 936 l 675 750 z "},"ë":{"ha":729,"x_min":94,"x_max":786,"o":"m 769 335 l 135 333 q 124 229 124 276 q 367 11 124 11 q 549 57 464 11 q 682 186 635 103 l 713 186 q 565 35 663 86 q 358 -15 474 -15 q 94 226 94 -15 q 108 338 94 278 q 251 594 140 493 q 515 694 361 694 q 710 635 638 694 q 786 453 786 571 q 776 365 786 413 l 769 335 m 739 360 q 749 443 749 404 q 684 609 749 550 q 510 668 619 668 q 274 583 372 668 q 140 360 176 497 l 739 360 m 626 776 q 607 760 622 760 q 597 776 593 760 l 597 776 l 614 853 q 631 867 617 867 q 643 853 646 867 l 643 853 l 626 776 m 465 776 q 447 760 461 760 q 436 776 432 760 l 436 776 l 453 853 q 471 867 456 867 q 482 853 485 867 l 482 853 l 465 776 z "},"ì":{"ha":189,"x_min":81,"x_max":354,"o":"m 110 0 l 81 0 l 225 678 l 254 678 l 110 0 m 346 757 q 340 738 354 746 q 318 740 328 731 l 197 910 q 203 931 189 922 q 224 928 215 940 l 346 757 z "},"í":{"ha":189,"x_min":81,"x_max":389,"o":"m 110 0 l 81 0 l 225 678 l 254 678 l 110 0 m 378 906 l 183 735 q 161 732 171 724 q 164 751 151 740 l 358 922 q 382 925 372 935 q 378 906 389 917 z "},"î":{"ha":189,"x_min":81,"x_max":400,"o":"m 110 0 l 81 0 l 225 678 l 254 678 l 110 0 m 400 750 l 367 750 l 289 910 l 142 750 l 113 750 l 279 936 l 308 936 l 400 750 z "},"ï":{"ha":189,"x_min":81,"x_max":379,"o":"m 110 0 l 81 0 l 225 678 l 254 678 l 110 0 m 360 776 q 340 760 356 760 q 331 776 326 760 l 331 776 l 347 853 q 364 867 350 867 q 376 853 379 867 l 376 853 l 360 776 m 199 776 q 181 760 194 760 q 169 776 165 760 l 169 776 l 186 853 q 204 867 189 867 q 215 853 218 867 l 215 853 l 199 776 z "},"ð":{"ha":783,"x_min":100,"x_max":893,"o":"m 736 338 q 747 436 747 390 q 682 608 747 549 q 501 668 617 668 q 263 569 364 668 q 140 338 169 478 q 129 243 129 288 q 190 73 129 135 q 363 11 251 11 q 606 107 500 11 q 736 338 706 199 m 838 814 l 376 814 l 382 842 l 843 842 l 864 942 l 893 942 l 693 0 l 664 0 l 706 196 q 358 -15 581 -15 q 140 88 207 -15 q 100 238 100 150 q 113 338 100 285 q 249 592 146 494 q 514 694 358 694 q 688 640 621 694 q 767 482 756 586 l 838 814 z "},"ñ":{"ha":729,"x_min":81,"x_max":750,"o":"m 646 0 l 617 0 l 713 449 q 719 507 719 481 q 661 631 719 589 q 524 668 610 668 q 308 588 397 668 q 190 382 218 508 l 110 0 l 81 0 l 225 678 l 254 678 l 217 501 q 343 646 257 594 q 528 694 424 694 q 682 656 622 694 q 750 521 750 610 q 744 463 750 493 l 646 0 m 740 857 q 697 794 731 821 q 626 767 664 767 q 538 805 604 767 q 454 843 472 843 q 401 819 426 843 q 368 765 376 794 l 347 782 q 391 842 354 814 q 461 869 428 869 q 548 831 482 869 q 632 793 614 793 q 687 817 661 793 q 719 871 713 842 l 740 857 z "},"ò":{"ha":757,"x_min":101,"x_max":801,"o":"m 790 339 q 647 85 757 181 q 375 -15 533 -15 q 176 52 250 -15 q 101 242 101 119 q 113 339 101 288 q 258 596 146 497 q 528 694 369 694 q 728 627 654 694 q 801 436 801 560 q 790 339 801 390 m 761 339 q 771 431 771 388 q 704 606 771 544 q 521 668 638 668 q 272 574 375 668 q 142 339 172 485 q 132 250 132 292 q 199 74 132 138 q 382 11 267 11 q 631 104 526 11 q 761 339 731 194 m 631 757 q 625 738 639 746 q 603 740 613 731 l 482 910 q 488 931 474 922 q 510 928 500 940 l 631 757 z "},"ó":{"ha":757,"x_min":101,"x_max":801,"o":"m 790 339 q 647 85 757 181 q 375 -15 533 -15 q 176 52 250 -15 q 101 242 101 119 q 113 339 101 288 q 258 596 146 497 q 528 694 369 694 q 728 627 654 694 q 801 436 801 560 q 790 339 801 390 m 761 339 q 771 431 771 388 q 704 606 771 544 q 521 668 638 668 q 272 574 375 668 q 142 339 172 485 q 132 250 132 292 q 199 74 132 138 q 382 11 267 11 q 631 104 526 11 q 761 339 731 194 m 663 906 l 467 735 q 446 732 456 724 q 447 751 435 740 l 642 922 q 667 925 656 935 q 663 906 675 917 z "},"ô":{"ha":757,"x_min":101,"x_max":801,"o":"m 790 339 q 647 85 757 181 q 375 -15 533 -15 q 176 52 250 -15 q 101 242 101 119 q 113 339 101 288 q 258 596 146 497 q 528 694 369 694 q 728 627 654 694 q 801 436 801 560 q 790 339 801 390 m 761 339 q 771 431 771 388 q 704 606 771 544 q 521 668 638 668 q 272 574 375 668 q 142 339 172 485 q 132 250 132 292 q 199 74 132 138 q 382 11 267 11 q 631 104 526 11 q 761 339 731 194 m 690 750 l 657 750 l 571 910 l 417 750 l 388 750 l 561 936 l 590 936 l 690 750 z "},"õ":{"ha":757,"x_min":101,"x_max":801,"o":"m 790 339 q 647 85 757 181 q 375 -15 533 -15 q 176 52 250 -15 q 101 242 101 119 q 113 339 101 288 q 258 596 146 497 q 528 694 369 694 q 728 627 654 694 q 801 436 801 560 q 790 339 801 390 m 761 339 q 771 431 771 388 q 704 606 771 544 q 521 668 638 668 q 272 574 375 668 q 142 339 172 485 q 132 250 132 292 q 199 74 132 138 q 382 11 267 11 q 631 104 526 11 q 761 339 731 194 m 750 857 q 706 794 739 821 q 636 767 674 767 q 547 805 614 767 q 465 843 481 843 q 411 819 436 843 q 378 765 386 796 l 357 782 q 400 843 364 817 q 472 869 436 869 q 558 831 492 869 q 642 793 624 793 q 731 871 703 793 l 750 857 z "},"ö":{"ha":757,"x_min":101,"x_max":801,"o":"m 790 339 q 647 85 757 181 q 375 -15 533 -15 q 176 52 250 -15 q 101 242 101 119 q 113 339 101 288 q 258 596 146 497 q 528 694 369 694 q 728 627 654 694 q 801 436 801 560 q 790 339 801 390 m 761 339 q 771 431 771 388 q 704 606 771 544 q 521 668 638 668 q 272 574 375 668 q 142 339 172 485 q 132 250 132 292 q 199 74 132 138 q 382 11 267 11 q 631 104 526 11 q 761 339 731 194 m 639 776 q 621 760 635 760 q 610 776 606 760 l 610 776 l 626 853 q 644 867 629 867 q 656 853 658 867 l 656 853 l 639 776 m 479 776 q 460 760 475 760 q 450 776 446 760 l 450 776 l 467 853 q 483 867 469 867 q 496 853 499 867 l 496 853 l 479 776 z "},"÷":{"ha":822,"x_min":138,"x_max":806,"o":"m 800 321 l 138 321 l 143 347 l 806 347 l 800 321 m 451 118 q 433 103 449 103 q 422 118 419 103 l 442 208 q 458 224 444 224 q 471 208 474 224 l 451 118 m 522 449 q 503 433 518 433 q 493 449 489 433 l 511 539 q 529 553 515 553 q 540 539 544 553 l 522 449 z "},"ø":{"ha":757,"x_min":101,"x_max":801,"o":"m 229 50 l 643 646 q 521 668 590 668 q 272 574 375 668 q 142 339 172 485 q 132 253 132 293 q 229 50 132 118 m 664 633 l 250 39 q 382 11 304 11 q 631 104 526 11 q 761 339 731 194 q 771 424 771 383 q 664 633 771 572 m 754 763 l 683 658 q 801 435 801 593 q 790 339 801 390 q 647 85 757 181 q 375 -15 533 -15 q 233 13 292 -15 l 179 -65 l 150 -65 l 213 24 q 101 239 101 96 q 113 339 101 285 q 258 596 146 497 q 528 694 369 694 q 661 671 604 694 l 725 763 l 754 763 z "},"ù":{"ha":729,"x_min":122,"x_max":790,"o":"m 646 0 l 617 0 l 653 172 q 528 33 610 82 q 344 -15 446 -15 q 189 25 247 -15 q 122 164 122 72 q 129 232 122 196 l 225 678 l 254 678 l 160 233 q 153 171 153 200 q 211 47 153 89 q 350 11 263 11 q 572 96 483 11 q 682 310 654 174 l 761 678 l 790 678 l 646 0 m 615 751 q 610 732 624 740 q 588 735 597 725 l 468 906 q 474 925 460 917 q 493 922 483 935 l 615 751 z "},"ú":{"ha":729,"x_min":122,"x_max":790,"o":"m 646 0 l 617 0 l 653 172 q 528 33 610 82 q 344 -15 446 -15 q 189 25 247 -15 q 122 164 122 72 q 129 232 122 196 l 225 678 l 254 678 l 160 233 q 153 171 153 200 q 211 47 153 89 q 350 11 263 11 q 572 96 483 11 q 682 310 654 174 l 761 678 l 790 678 l 646 0 m 649 910 l 456 740 q 433 738 443 729 q 436 757 424 746 l 629 928 q 653 931 643 940 q 649 910 663 922 z "},"û":{"ha":729,"x_min":122,"x_max":790,"o":"m 646 0 l 617 0 l 653 172 q 528 33 610 82 q 344 -15 446 -15 q 189 25 247 -15 q 122 164 122 72 q 129 232 122 196 l 225 678 l 254 678 l 160 233 q 153 171 153 200 q 211 47 153 89 q 350 11 263 11 q 572 96 483 11 q 682 310 654 174 l 761 678 l 790 678 l 646 0 m 675 750 l 642 750 l 556 910 l 403 750 l 374 750 l 547 936 l 576 936 l 675 750 z "},"ü":{"ha":729,"x_min":122,"x_max":790,"o":"m 646 0 l 617 0 l 653 172 q 528 33 610 82 q 344 -15 446 -15 q 189 25 247 -15 q 122 164 122 72 q 129 232 122 196 l 225 678 l 254 678 l 160 233 q 153 171 153 200 q 211 47 153 89 q 350 11 263 11 q 572 96 483 11 q 682 310 654 174 l 761 678 l 790 678 l 646 0 m 625 776 q 606 760 621 760 q 596 776 592 760 l 596 776 l 613 853 q 629 867 615 867 q 642 853 644 867 l 642 853 l 625 776 m 464 776 q 446 760 460 760 q 435 776 431 760 l 435 776 l 451 853 q 469 867 454 867 q 481 853 483 867 l 481 853 l 464 776 z "},"ý":{"ha":703,"x_min":39,"x_max":790,"o":"m 651 24 q 282 -249 593 -249 q 118 -212 181 -249 q 39 -75 39 -168 q 43 -35 39 -56 l 72 -35 q 69 -67 69 -51 q 290 -222 69 -222 q 622 25 569 -222 l 653 172 q 528 33 610 82 q 344 -15 446 -15 q 189 25 247 -15 q 122 164 122 72 q 129 232 122 196 l 225 678 l 254 678 l 160 233 q 153 171 153 200 q 211 47 153 89 q 350 11 263 11 q 572 96 483 11 q 682 310 654 174 l 761 678 l 790 678 l 651 24 m 638 913 l 443 743 q 429 738 435 738 q 417 744 421 738 q 422 760 413 753 l 617 931 q 642 933 629 942 q 643 924 644 929 q 638 913 643 919 z "},"þ":{"ha":783,"x_min":31,"x_max":815,"o":"m 803 342 q 669 86 769 182 q 404 -15 563 -15 q 229 39 297 -15 q 151 197 161 93 l 60 -233 l 31 -233 l 281 942 l 310 942 l 213 481 q 352 637 261 579 q 553 694 443 694 q 746 630 676 694 q 815 444 815 565 q 803 342 815 397 m 775 340 q 786 435 786 392 q 726 606 786 543 q 556 668 665 668 q 311 575 415 668 q 183 344 213 485 q 171 240 171 288 q 415 11 171 11 q 654 108 556 11 q 775 340 744 197 z "},"ÿ":{"ha":708,"x_min":39,"x_max":790,"o":"m 651 24 q 282 -249 593 -249 q 118 -212 181 -249 q 39 -75 39 -168 q 43 -35 39 -56 l 72 -35 q 69 -67 69 -51 q 290 -222 69 -222 q 622 25 569 -222 l 653 172 q 528 33 610 82 q 344 -15 446 -15 q 189 25 247 -15 q 122 164 122 72 q 129 232 122 196 l 225 678 l 254 678 l 160 233 q 153 171 153 200 q 211 47 153 89 q 350 11 263 11 q 572 96 483 11 q 682 310 654 174 l 761 678 l 790 678 l 651 24 m 615 776 q 596 760 611 760 q 586 776 582 760 l 586 776 l 603 853 q 619 867 606 867 q 632 853 633 867 l 632 853 l 615 776 m 454 776 q 436 760 450 760 q 425 776 421 760 l 425 776 l 442 853 q 460 867 444 867 q 471 853 472 867 l 471 853 l 454 776 z "},"ı":{"ha":189,"x_min":81,"x_max":254,"o":"m 110 0 l 81 0 l 225 678 l 254 678 l 110 0 z "},"Œ":{"ha":1403,"x_min":138,"x_max":1542,"o":"m 1350 0 l 653 0 q 529 -11 593 -11 q 207 118 308 -11 q 138 336 138 206 q 153 468 138 399 q 354 819 200 690 q 733 949 508 949 q 822 942 779 949 l 1542 942 l 1536 915 l 921 915 q 1072 790 1019 874 q 1125 596 1125 706 q 1117 504 1125 553 l 1406 504 l 1400 479 l 1113 479 l 1111 468 q 904 119 1064 251 q 744 26 832 60 l 1356 26 l 1350 0 m 1088 504 q 1096 592 1096 550 q 1038 788 1096 706 q 872 903 979 871 l 788 504 l 1088 504 m 1082 468 l 1083 479 l 782 479 l 688 35 q 889 140 800 65 q 1082 468 1038 264 m 658 28 l 846 910 q 728 922 792 922 q 371 799 517 922 q 182 468 225 676 q 167 343 167 401 q 271 94 167 182 q 535 14 368 14 q 658 28 599 14 z "},"œ":{"ha":1461,"x_min":135,"x_max":1475,"o":"m 794 339 q 804 431 804 388 q 738 606 804 544 q 554 668 671 668 q 306 574 408 668 q 175 339 206 485 q 165 250 165 292 q 233 74 165 138 q 415 11 300 11 q 664 104 560 11 q 794 339 764 194 m 1458 335 l 825 333 q 814 229 814 276 q 1057 11 814 11 q 1240 57 1154 11 q 1372 186 1325 103 l 1403 186 q 1254 36 1353 89 q 1049 -15 1161 -15 q 786 226 788 -15 q 675 83 744 143 q 408 -15 560 -15 q 209 52 283 -15 q 135 242 135 119 q 146 339 135 288 q 291 596 179 497 q 561 694 403 694 q 756 630 683 694 q 833 444 829 565 q 946 593 874 529 q 1204 694 1060 694 q 1399 635 1326 694 q 1475 453 1475 571 q 1465 365 1475 413 l 1458 335 m 1428 360 q 1438 443 1438 404 q 1373 609 1438 550 q 1199 668 1308 668 q 965 581 1064 668 q 831 360 865 494 l 1428 360 z "},"Š":{"ha":892,"x_min":104,"x_max":956,"o":"m 872 229 q 706 40 846 104 q 457 -10 596 -10 q 104 224 104 -10 q 113 297 104 257 l 117 311 l 146 311 l 143 303 q 135 229 135 264 q 464 17 135 17 q 696 61 599 17 q 844 233 819 118 q 850 285 850 261 q 721 422 850 382 q 532 469 686 433 q 415 499 451 489 q 311 540 346 518 q 229 676 229 590 q 233 721 229 697 q 635 951 283 951 q 956 743 956 951 q 949 678 956 713 l 919 678 q 924 732 924 706 q 828 893 924 847 q 629 925 760 925 q 263 721 307 925 q 258 679 258 699 q 347 553 258 597 q 510 508 394 531 q 819 411 749 463 q 879 288 879 368 q 872 229 879 260 m 851 1214 l 674 1026 l 644 1026 l 550 1214 l 579 1214 l 664 1053 l 818 1214 l 851 1214 z "},"š":{"ha":675,"x_min":99,"x_max":708,"o":"m 640 169 q 528 22 619 71 q 342 -18 453 -18 q 99 161 99 -18 q 107 233 99 194 l 139 233 q 131 169 131 199 q 350 11 131 11 q 510 46 442 11 q 608 169 590 88 q 611 196 611 183 q 485 313 611 281 q 347 336 474 315 q 190 469 190 363 q 194 507 190 488 q 297 649 213 597 q 469 696 372 696 q 708 536 707 696 q 701 476 708 508 l 668 476 q 674 528 674 504 q 471 667 674 667 q 319 628 386 667 q 226 507 242 585 q 222 481 222 493 q 350 372 222 397 q 492 344 406 361 q 644 207 644 315 q 640 169 644 189 m 688 950 l 510 763 l 481 763 l 385 950 l 414 950 l 500 789 l 653 950 l 688 950 z "},"Ÿ":{"ha":921,"x_min":225,"x_max":1096,"o":"m 1096 942 l 575 463 l 476 0 l 447 0 l 546 463 l 225 942 l 263 942 l 565 490 l 1061 942 l 1096 942 m 783 1040 q 765 1024 781 1024 q 754 1040 751 1024 l 754 1040 l 771 1117 q 788 1131 774 1131 q 800 1117 801 1131 l 800 1117 l 783 1040 m 622 1040 q 606 1024 619 1024 q 593 1040 590 1024 l 593 1040 l 610 1117 q 628 1131 613 1131 q 639 1117 640 1131 l 639 1117 l 622 1040 z "},"ƒ":{"ha":811,"x_min":-89,"x_max":1019,"o":"m -89 -233 l -78 -208 q 294 -1 188 -208 l 294 -1 l 553 576 l 451 576 l 465 604 l 565 604 q 597 672 572 618 q 1019 925 713 925 l 1008 900 q 626 672 731 900 l 594 604 l 747 604 l 735 576 l 582 576 l 333 19 q -89 -233 221 -233 z "},"ˆ":{"ha":360,"x_min":189,"x_max":490,"o":"m 490 750 l 457 750 l 371 910 l 218 750 l 189 750 l 361 936 l 390 936 l 490 750 z "},"ˇ":{"ha":189,"x_min":140,"x_max":442,"o":"m 442 950 l 264 763 l 235 763 l 140 950 l 169 950 l 256 789 l 408 950 l 442 950 z "},"¯":{"ha":435,"x_min":225,"x_max":569,"o":"m 564 829 l 225 829 l 231 856 l 569 856 l 564 829 z "},"˚":{"ha":189,"x_min":167,"x_max":389,"o":"m 257 790 q 193 812 219 790 q 167 869 167 833 q 217 965 167 928 q 300 993 256 993 q 363 972 338 993 q 389 914 389 950 q 339 819 389 856 q 257 790 301 790 m 294 964 q 228 938 257 964 q 199 875 199 913 q 263 819 199 819 q 329 845 300 819 q 358 908 358 871 q 294 964 358 964 z "},"˜":{"ha":508,"x_min":232,"x_max":625,"o":"m 625 857 q 581 794 614 821 q 510 767 547 767 q 423 805 489 767 q 339 843 357 843 q 286 819 311 843 q 253 765 261 794 l 232 782 q 276 842 239 814 q 346 869 313 869 q 433 831 367 869 q 515 793 499 793 q 571 817 544 793 q 604 871 597 842 l 625 857 z "},"μ":{"ha":811,"x_min":0,"x_max":0,"o":""},"–":{"ha":688,"x_min":75,"x_max":765,"o":"m 760 353 l 75 353 l 81 381 l 765 381 l 760 353 z "},"—":{"ha":1242,"x_min":75,"x_max":1319,"o":"m 1314 353 l 75 353 l 81 381 l 1319 381 l 1314 353 z "},"‘":{"ha":243,"x_min":226,"x_max":372,"o":"m 365 922 l 260 707 q 239 696 253 692 q 233 714 226 699 l 338 929 q 358 940 344 943 q 365 922 372 938 z "},"’":{"ha":243,"x_min":226,"x_max":372,"o":"m 365 922 l 261 707 q 239 696 254 693 q 233 714 226 699 l 339 929 q 358 940 347 944 q 365 922 372 938 z "},"‚":{"ha":406,"x_min":107,"x_max":246,"o":"m 244 101 l 244 101 l 140 -114 q 118 -125 132 -129 q 110 -114 107 -122 q 113 -107 110 -111 l 113 -107 l 218 108 q 236 119 225 124 q 246 110 246 118 q 244 101 246 107 z "},"“":{"ha":371,"x_min":226,"x_max":518,"o":"m 511 922 l 406 707 q 385 696 399 692 q 379 714 372 699 l 483 929 q 504 940 490 943 q 511 922 518 938 m 365 922 l 260 707 q 239 696 253 692 q 233 714 226 699 l 338 929 q 358 940 344 943 q 365 922 372 938 z "},"”":{"ha":383,"x_min":226,"x_max":518,"o":"m 511 922 l 407 707 q 385 696 400 693 q 379 714 372 699 l 485 929 q 504 940 493 944 q 511 922 518 938 m 365 922 l 261 707 q 239 696 254 693 q 233 714 226 699 l 339 929 q 358 940 347 944 q 365 922 372 938 z "},"„":{"ha":488,"x_min":107,"x_max":392,"o":"m 244 101 l 244 101 l 140 -114 q 118 -125 132 -129 q 110 -114 107 -122 q 113 -107 110 -111 l 113 -107 l 218 108 q 236 119 225 124 q 246 110 246 118 q 244 101 246 107 m 390 101 l 390 101 l 286 -114 q 264 -125 278 -129 q 256 -114 253 -122 q 258 -107 256 -111 l 258 -107 l 364 108 q 382 119 371 124 q 392 110 392 118 q 390 101 392 107 z "},"†":{"ha":479,"x_min":190,"x_max":553,"o":"m 546 656 l 382 656 l 226 -79 l 197 -79 l 353 656 l 190 656 l 197 683 l 360 683 l 397 863 l 426 863 l 389 683 l 553 683 l 546 656 z "},"‡":{"ha":468,"x_min":71,"x_max":558,"o":"m 426 63 l 264 63 l 233 -79 l 204 -79 l 235 63 l 71 63 l 76 90 l 240 90 l 360 656 l 196 656 l 203 683 l 367 683 l 404 863 l 433 863 l 396 683 l 558 683 l 551 656 l 389 656 l 269 90 l 432 90 l 426 63 z "},"•":{"ha":406,"x_min":150,"x_max":378,"o":"m 336 363 q 242 347 333 347 q 153 363 150 347 l 192 540 q 286 556 194 556 q 375 540 378 556 l 336 363 z "},"…":{"ha":886,"x_min":188,"x_max":767,"o":"m 219 13 q 203 -3 217 -3 q 190 13 188 -3 l 210 103 q 228 118 213 118 q 239 103 242 118 l 219 13 m 482 13 q 465 -3 479 -3 q 453 13 450 -3 l 472 103 q 490 118 475 118 q 501 103 504 118 l 482 13 m 744 13 q 728 -3 742 -3 q 715 13 713 -3 l 735 103 q 753 118 738 118 q 764 103 767 118 l 744 13 z "},"‰":{"ha":1406,"x_min":160,"x_max":1422,"o":"m 1408 214 q 1169 -26 1357 -26 q 1025 121 1025 -26 q 1036 214 1025 163 q 1275 461 1089 461 q 1419 306 1422 461 q 1408 214 1419 265 m 1056 942 l 194 0 l 160 0 l 1022 942 l 1056 942 m 985 214 q 747 -26 933 -26 q 601 122 601 -26 q 613 214 601 163 q 853 461 665 461 q 996 313 996 461 q 985 214 996 269 m 568 667 q 329 428 517 428 q 185 574 185 428 q 196 667 185 615 q 435 913 249 913 q 579 763 579 913 q 568 667 579 721 m 1378 214 q 1389 304 1389 265 q 1268 435 1389 435 q 1067 214 1114 435 q 1056 126 1056 164 q 1176 0 1057 0 q 1378 214 1332 0 m 954 214 q 965 306 965 265 q 846 435 964 435 q 643 214 690 435 q 632 131 633 167 q 754 0 632 0 q 954 214 908 0 m 538 667 q 549 756 549 717 q 428 886 549 886 q 226 667 274 886 q 217 583 217 619 q 336 453 215 453 q 538 667 492 453 z "},"‹":{"ha":408,"x_min":176,"x_max":421,"o":"m 421 544 l 415 514 l 208 381 l 358 246 l 353 219 l 176 367 l 182 393 l 421 544 z "},"›":{"ha":408,"x_min":146,"x_max":389,"o":"m 214 544 l 208 514 l 357 381 l 151 246 l 146 219 l 383 367 l 389 393 l 214 544 z "},"™":{"ha":1096,"x_min":269,"x_max":1225,"o":"m 706 921 q 615 482 699 883 l 581 482 l 674 921 l 510 921 l 417 482 l 382 482 l 475 921 l 269 921 l 275 950 l 732 950 l 864 524 l 1174 950 l 1225 950 l 1126 482 l 1090 482 l 1182 914 l 872 482 l 840 482 l 706 921 z "},"­":{"ha":822,"x_min":138,"x_max":806,"o":"m 800 321 l 138 321 l 143 347 l 806 347 l 800 321 z "},"·":{"ha":290,"x_min":233,"x_max":288,"o":"m 265 406 q 249 389 263 389 q 236 406 233 389 l 256 494 q 274 510 258 510 q 285 494 288 510 l 265 406 z "}," ":{"ha":729,"x_min":0,"x_max":0,"o":""}}}
